<svg xmlns="http://www.w3.org/2000/svg" data-name="Layer 1" viewBox="0 0 700 550" id="man-withdrawing-money-from-atm"><path fill="#efedef" d="M431.97754,447.72264c16.25-5.08,30.83-10.27,48.37-20.12,18.09-10.16,98.45-58.51,108.9-142.19a159.61541,159.61541,0,0,0-6.66-68.16c-3.23-9.47-9.93-28.49-26.84-47.3-20.7-23.04-44.32-31.97-58.17-37.02-29.14-10.63-53.58-10.07-65.22-9.69-12.56.41-34.73,1.33-59.93,12.34-16.44,7.18-26.66,15.37-41.72,27.61-23.86,19.41-27,27.49-68.74,67.57-11.46,11-20.88,19.67-35.26,28.21-9.97,5.92-18.03,9.23-32.9,15.27-36.55,14.85-46.95658,17.85676-58.91658,26.21676-23.26,16.27-21.75342,34.01324-22.75342,37.83324a75.12694,75.12694,0,0,0-1.77,29.97c3.05,20.07,13.86,33.19,20.57,41.13a113.09822,113.09822,0,0,0,32.9,26.44,210.24676,210.24676,0,0,0,26.96,11.89Z"></path><path fill="#efedef" d="M483.569,433.537l-.49024-.8711C506.9791,419.23911,585.776,368.90318,596.25645,284.92954a166.23834,166.23834,0,0,0-6.91407-70.77246c-2.97656-8.73144-9.94922-29.17968-27.84765-49.0957-21.91993-24.3916-46.94532-33.51855-60.38965-38.42187A174.05882,174.05882,0,0,0,433.358,116.57115c-12.42481.40429-35.55078,1.15625-62.24317,12.81054l-.40039-.916c26.86817-11.73145,51.00879-12.5166,62.61035-12.89453a175.04842,175.04842,0,0,1,68.12208,10.1289c13.52636,4.9336,38.7041,14.11621,60.792,38.69336,18.03515,20.06738,25.05371,40.65137,28.05078,49.44141a167.306,167.306,0,0,1,6.959,71.21777C586.71055,369.492,507.57285,420.05259,483.569,433.537Z"></path><rect width="122.653" height="299.702" x="247.359" y="148.021" fill="#7f95d3"></rect><polygon fill="#f9977a" points="477.204 421.854 477.204 437.098 461.212 438.512 460.56 426.609 477.204 421.854"></polygon><polygon fill="#f9977a" points="420.681 421.854 420.681 437.098 402.808 437.098 404.708 426.418 420.681 421.854"></polygon><path fill="#f9977a" d="M474.413,263.72672s-2.97059,2.2364-4.54227,10.28535-1.95063,14.55077.42325,9.27941l1.74246-4.04691s1.54938,6.409,2.138,10.30792a4.88277,4.88277,0,0,0,4.04971,4.166c1.94134.27451,3.20916-.65517,3.40208-5.266.28854-6.89616.2445-10.54734-.18259-12.27092-.14795-.59712-2.2702-6.92645-2.2702-6.92645Z"></path><path fill="#f9977a" d="M458.2175 200.57162L468.585 226.25374c1.12228 2.21827.84092 7.29661.89329 9.78206l.76441 36.2763 9.06751-1.26943 6.54989-29.711a34.04385 34.04385 0 00-1.062-18.42886l-8.75493-25.385zM444.82206 167.01888c.53507-.71343-6.14469-2.70367-6.39048-9.09415-.36784-9.56371 3.68682-22.98116 3.68682-22.98116H413.23833a32.44206 32.44206 0 000 7.25074c.4066 2.43962-3.12946 11.05272 3.75132 20.25341.58742.78546 1.74531.88717 2.721.98733 1.55878.16 3.92449 1.17511 2.376 6.1646C422.08669 169.59965 435.23634 179.79984 444.82206 167.01888z"></path><path fill="#ffba55" d="M477.75763,198.60261l-10.22085-18.34608a20.2319,20.2319,0,0,0-11.15994-9.308l-11.55478-3.92966a27.92622,27.92622,0,0,1-22.73537,2.58077s-12.90386,4.30129-16.03766,7.9881-5.63,26.87621-5.63,26.87621l16.20182,2.13534L406.049,256.48564s42.21406,11.42914,52.90583-2.58077c0,0-2.21209-31.70663,1.106-44.97917C460.06091,208.9257,467.43454,209.29438,477.75763,198.60261Z"></path><path fill="#8b9d36" d="M458.95486,253.90487s7.005,24.70168,5.039,88.3576c0,0,14.25532,30.97239,14.99269,84.55413H460.06091l-20.64618-79.63525L433.76161,322.111l-6.1447,22.61248s1.96631,53.82753-6.26758,82.09313h-18.557l-2.94945-90.6957,6.20614-79.63526Z"></path><path fill="#5e7c24" d="M415.08178 344.23191a4.02281 4.02281 0 002.68111 2.12607 9.81185 9.81185 0 003.445.38053 14.45839 14.45839 0 006.40908-2.01506c-1.14286.02911-2.22448.184-3.30358.30317-1.0762.12953-2.13829.22366-3.19068.30833a19.08473 19.08473 0 01-3.1176-.04322A5.59718 5.59718 0 01415.08178 344.23191zM451.4583 342.39515a4.02333 4.02333 0 002.68125 2.12607 9.8145 9.8145 0 003.445.38053 14.45807 14.45807 0 006.409-2.01506c-1.14273.029-2.22447.184-3.30345.303-1.07633.12966-2.13842.22366-3.1908.30846a19.06851 19.06851 0 01-3.11747-.04335A5.596 5.596 0 01451.4583 342.39515zM447.27988 272.95348c-.53993 4.25957-1.24089 8.48185-1.99049 12.68736-.77845 4.20073-1.65418 8.37764-2.69132 12.5126-1.03891 4.1352-2.28748 8.20766-3.68285 12.2345a100.15107 100.15107 0 01-5.15357 11.72305 60.85213 60.85213 0 006.1771-11.32651 96.52288 96.52288 0 004.02231-12.28718A119.22845 119.22845 0 00446.3695 285.811 96.41917 96.41917 0 00447.27988 272.95348z"></path><path fill="#5e7c24" d="M451.4583 286.96338c-1.42258 1.81472-2.57325 3.69357-3.82435 5.49542-.61591.90459-1.228 1.8059-1.90241 2.65365a16.24918 16.24918 0 01-2.25421 2.41979 6.65215 6.65215 0 003.04967-1.66338 13.27814 13.27814 0 002.27-2.61963 17.97613 17.97613 0 001.64637-3.0081A13.88021 13.88021 0 00451.4583 286.96338zM439.41473 266.64079H418.03119S426.14219 312.35732 439.41473 266.64079zM463.26621 286.37767c-7.48935 4.594-11.80784-19.73274-11.80784-19.73274H461.289C461.97756 271.61875 462.69814 278.13223 463.26621 286.37767z"></path><path fill="#d6694b" d="M477.20356 446.62943H440.68281a2.81326 2.81326 0 01-2.799-3.09576s-.40794-3.6877.56379-4.07588l22.31572-8.9146s9.27573 11.30853 16.44028 1.8816C477.20356 432.42479 483.20507 443.11769 477.20356 446.62943zM420.6814 446.62943H384.16065a2.81326 2.81326 0 01-2.799-3.09576s-.40794-3.6877.56379-4.07588l22.31572-8.9146s9.27573 11.30853 16.44028 1.8816C420.6814 432.42479 426.68291 443.11769 420.6814 446.62943z"></path><path fill="#f9977a" d="M388.55448,259.13587s-3.29441-1.86951-11.45387-.07513S362.71113,263.137,368.6,263.21838l4.48853-.01226s-5.36148,4.04634-8.76663,6.17716a4.97414,4.97414,0,0,0-2.25158,5.47372c.53051,1.9256,1.91337,2.73354,6.30072,1.0445,6.56189-2.5262,9.9563-4.04763,11.39395-5.14555.49806-.38036,5.55283-4.92979,5.55283-4.92979Z"></path><path fill="#dd765e" d="M376.52065 261.02274a3.63357 3.63357 0 00-2.02816.595 3.40438 3.40438 0 00-1.40389 1.58839 4.28782 4.28782 0 001.97458-.67853A4.05568 4.05568 0 00376.52065 261.02274zM370.9808 267.76755a31.55728 31.55728 0 00-4.55815 2.0722c-1.45775.78776-2.85828 1.588-4.32565 2.46671a8.27752 8.27752 0 002.50981-.50046 15.90953 15.90953 0 002.32217-1.01908 18.73487 18.73487 0 002.1379-1.34367A12.19974 12.19974 0 00370.9808 267.76755zM371.80245 270.10462c-1.71786.74292-3.27621 1.64819-4.85927 2.49722-.78079.44363-1.57371.85064-2.36775 1.25155a13.17974 13.17974 0 01-2.50508 1.00365 5.57309 5.57309 0 002.80658-.22111 13.03892 13.03892 0 002.58136-1.09147 17.81771 17.81771 0 002.32-1.52815A12.79391 12.79391 0 00371.80245 270.10462zM372.045 272.4611a35.13887 35.13887 0 00-4.09823 2.02052l-1.95353 1.11467c-.65308.37566-1.30582.74709-1.97128 1.185a9.866 9.866 0 004.447-1.36122A11.87184 11.87184 0 00372.045 272.4611z"></path><path fill="#f9977a" d="M403.6526,204.8702v30.87945a16.6035,16.6035,0,0,1-1.63355,7.1817l-22.82457,15.987,3.06,9.67326,31.9913-13.5393a34.044,34.044,0,0,0,7.37187-16.92354l4.15586-30.3091Z"></path><path fill="#1e1d22" d="M442.112,160.13211s-12.49929,3.906-18.76619-10.93857c0,0,4.397-3.35081.39915-6.09165a3.65127,3.65127,0,0,0-3.213-.52733,1.49139,1.49139,0,0,0-1.17967,1.56908l-6.1494-8.85215s-4.87023.67292-5.44286-5.39491c0,0-5.473-2.38726.37039-5.92463,0,0-1.29363-7.471,6.32408-2.92066,0,0,3.126-11.76828,17.21455,2.40788,0,0,19.65564-.93369,12.77539,17.08906Z"></path><path fill="#e6952a" d="M458.21755 176.113a10.55462 10.55462 0 011.44753 3.83777 37.37356 37.37356 0 01.63519 4.06527c.26171 2.73795.314 5.49744.31929 8.25681-.01764 2.76276-.10874 5.52912-.22718 8.302-.11819 2.77354-.27167 5.55017-.33152 8.35086.32093-1.36229.5519-2.73889.83113-4.11164.25339-1.37565.414-2.76466.59461-4.152a78.00047 78.00047 0 00.53879-8.38469 51.48626 51.48626 0 00-.642-8.41141c-.14868-.6929-.27128-1.38825-.44139-2.07441-.20614-.68067-.35546-1.36979-.61893-2.03308a15.54761 15.54761 0 00-.85557-1.94594A5.79894 5.79894 0 00458.21755 176.113zM424.21809 176.113a10.55251 10.55251 0 011.44766 3.83777 37.43711 37.43711 0 01.63519 4.06527c.26171 2.73795.314 5.49744.31929 8.25681-.01776 2.76276-.10886 5.52912-.22731 8.302-.11819 2.77354-.27154 5.55017-.33139 8.35086.32093-1.36229.5519-2.73889.83112-4.11164.2534-1.37565.414-2.76466.59449-4.152a77.93616 77.93616 0 00.5388-8.38469 51.473 51.473 0 00-.642-8.41141c-.14855-.6929-.27116-1.38825-.44126-2.07441-.20627-.68067-.35559-1.36979-.61893-2.03308a15.54761 15.54761 0 00-.85557-1.94594A5.79935 5.79935 0 00424.21809 176.113zM454.56028 224.09454c-.88556 2.56986-1.89158 5.07312-2.94989 7.53833a61.665 61.665 0 01-3.62842 7.13794 34.05282 34.05282 0 01-2.20633 3.30686 25.93748 25.93748 0 01-2.57489 3.0057 18.21808 18.21808 0 01-6.61724 4.36088 14.55841 14.55841 0 007.3628-3.55533 26.046 26.046 0 005.2414-6.39509 40.65422 40.65422 0 003.4408-7.46216A39.83478 39.83478 0 00454.56028 224.09454z"></path><path fill="#dd765e" d="M429.73153,162.362s-3.68245,4.207-7.24676,5.4943c.48731-3.231-1.15182-4.15172-2.476-4.37511h0S427.45262,163.75452,429.73153,162.362Z"></path><rect width="21.515" height="14.451" x="466.193" y="277.705" fill="#f73c4f" rx=".898"></rect><rect width="21.515" height="3.463" x="466.193" y="280.383" fill="#f9e0c0"></rect><rect width="10.824" height=".9" x="467.003" y="289.258" fill="#ffba55"></rect><path fill="#ffba55" d="M485.21463,290.9549a1.24675,1.24675,0,0,0,0-2.492,1.24675,1.24675,0,0,0,0,2.492Z"></path><path fill="#f9977a" d="M474.413,263.72672s-2.97059,2.2364-4.54227,10.28535-1.95063,14.55077.42325,9.27941l1.74246-4.04691,7.137-9.98944Z"></path><rect width="103.413" height="86.097" x="256.979" y="158.166" fill="#6c7fd8"></rect><rect width="75.516" height="54.323" x="270.928" y="174.053" fill="#fff"></rect><rect width="91.388" height="19.24" x="262.991" y="244.264" fill="#8ea1e8"></rect><rect width="85.135" height="18.278" x="266.118" y="263.503" fill="#065082"></rect><rect width="103.413" height="155.797" x="256.979" y="281.781" fill="#6c7fd8"></rect><rect width="122.653" height="10.145" x="247.359" y="437.577" fill="#4c60a8"></rect><rect width="122.653" height="10.145" x="247.359" y="148.021" fill="#4c60a8"></rect><rect width="32.707" height="10.101" x="292.332" y="267.592" fill="#6c7fd8"></rect><rect width="13.468" height="1.516" x="272.371" y="253.883" fill="#6c7fd8"></rect><rect width="6.253" height="3.848" x="330.811" y="267.592" fill="#6c7fd8"></rect><rect width="6.253" height="3.848" x="330.811" y="273.844" fill="#6c7fd8"></rect><rect width="6.253" height="3.848" x="280.948" y="267.592" fill="#6c7fd8"></rect><rect width="6.253" height="3.848" x="280.948" y="273.844" fill="#6c7fd8"></rect><rect width="50.744" height="2.672" x="281.991" y="185.209" fill="#6c7fd8"></rect><path fill="#065082" d="M296.38047 271.28859h-1.002a.334.334 0 110-.668h1.002a.334.334 0 010 .668zM319.09727 271.28859h-1.89258a.334.334 0 110-.668h1.89258a.334.334 0 010 .668zm-3.78614 0h-1.89258a.334.334 0 010-.668h1.89258a.334.334 0 110 .668zm-3.78613 0h-1.89355a.334.334 0 110-.668H311.525a.334.334 0 010 .668zm-3.78613 0h-1.89356a.334.334 0 010-.668h1.89356a.334.334 0 010 .668zm-3.78614 0h-1.89355a.334.334 0 010-.668h1.89355a.334.334 0 110 .668zm-3.78613 0h-1.89355a.334.334 0 110-.668h1.89355a.334.334 0 110 .668zM321.99277 271.28859h-1.002a.334.334 0 010-.668h1.002a.334.334 0 110 .668zM296.38047 274.66359h-1.002a.334.334 0 110-.668h1.002a.334.334 0 010 .668zM319.09727 274.66359h-1.89258a.334.334 0 110-.668h1.89258a.334.334 0 010 .668zm-3.78614 0h-1.89258a.334.334 0 010-.668h1.89258a.334.334 0 110 .668zm-3.78613 0h-1.89355a.334.334 0 110-.668H311.525a.334.334 0 010 .668zm-3.78613 0h-1.89356a.334.334 0 010-.668h1.89356a.334.334 0 010 .668zm-3.78614 0h-1.89355a.334.334 0 010-.668h1.89355a.334.334 0 110 .668zm-3.78613 0h-1.89355a.334.334 0 110-.668h1.89355a.334.334 0 110 .668zM321.99277 274.66359h-1.002a.334.334 0 010-.668h1.002a.334.334 0 110 .668z"></path><polygon fill="#566dc1" points="256.979 158.166 270.928 158.166 256.979 183.585 256.979 158.166"></polygon><polygon fill="#566dc1" points="360.392 158.166 346.443 158.166 360.392 183.585 360.392 158.166"></polygon><polygon fill="#566dc1" points="256.979 291.168 266.238 291.168 256.979 317.728 256.979 291.168"></polygon><polygon fill="#566dc1" points="360.392 291.168 351.133 291.168 360.392 317.728 360.392 291.168"></polygon><rect width="85.016" height="1.336" x="266.118" y="262.835" fill="#6c7fd8"></rect><rect width="16.835" height="4.402" x="327.204" y="253.516" fill="#6c7fd8"></rect><path fill="#8b9d36" d="M327.20377,256.78619a21.96834,21.96834,0,0,1,2.435,10.07074s11.57384-2.6254,17.10524-.54111c0,0,.90185-6.98123-2.70558-8.97218Z"></path><path fill="#5e7c24" d="M327.20377,256.00458a18.31937,18.31937,0,0,1,2.94607,9.92043s12.02476-2.53522,17.55616-.45092c0,0-.06013-6.92111-3.66756-8.91206Z"></path><path fill="#8b9d36" d="M327.20377,255.20608a13.26673,13.26673,0,0,1,3.60743,9.21918s11.9446-2.0843,17.476,0c0,0-.64132-7.22822-4.24875-9.21918Z"></path><path fill="#5e7c24" d="M338.10622,261.83659c3.86869,0,3.87509-6.01238,0-6.01238-3.86868,0-3.87509,6.01238,0,6.01238Z"></path><rect width="122.653" height="10.145" x="247.359" y="281.781" fill="#4c60a8"></rect><path fill="#566dc1" d="M347.44492,229.37844H269.92637V173.05129h77.51855Zm-75.51465-2.00391H345.441V175.0552H271.93027Z"></path><path fill="#ffba55" d="M306.4088 191.59649h-8.065v.855h3.04787a2.41918 2.41918 0 011.04561.2362.99856.99856 0 01-.49 1.87268h-3.60343v.855h5.42688a2.44 2.44 0 01-2.379 1.90939h-2.62039v.85211l4.46712 5.85068.67967-.51865-4.06952-5.3292 1.94684 0a1.11881 1.11881 0 00.296-.038 3.43835 3.43835 0 002.37328-2.07183.99888.99888 0 01.93093-.65452h1.01324v-.855h-.94049a1.0009 1.0009 0 01-.94715-.70332 3.26766 3.26766 0 00-.80116-1.29724c-.03828-.03828-.07964-.07218-.11946-.10832h2.80826zM295.68562 191.59649h-8.065v.855h3.04787a2.41921 2.41921 0 011.04561.2362.99856.99856 0 01-.49 1.87268h-3.60343v.855h5.42687a2.44 2.44 0 01-2.379 1.90939h-2.62039v.85211l4.46711 5.85068.67968-.51865-4.06953-5.3292 1.94685 0a1.11879 1.11879 0 00.296-.038 3.43836 3.43836 0 002.37329-2.07183.99887.99887 0 01.93093-.65452h1.01323v-.855h-.94048a1.00092 1.00092 0 01-.94716-.70332 3.26766 3.26766 0 00-.80116-1.29724c-.03827-.03828-.07964-.07218-.11945-.10832h2.80825zM316.78974 191.59649h-8.065v.855h3.04787a2.41921 2.41921 0 011.04561.2362.99856.99856 0 01-.49 1.87268h-3.60343v.855h5.42687a2.44 2.44 0 01-2.379 1.90939h-2.62039v.85211l4.46711 5.85068.67968-.51865-4.06953-5.3292 1.94685 0a1.11879 1.11879 0 00.296-.038 3.43836 3.43836 0 002.37329-2.07183.99887.99887 0 01.93093-.65452h1.01323v-.855h-.94048a1.00092 1.00092 0 01-.94716-.70332 3.26766 3.26766 0 00-.80116-1.29724c-.03827-.03828-.07964-.07218-.11945-.10832h2.80825zM327.65362 191.59649h-8.065v.855h3.04787a2.41921 2.41921 0 011.04561.2362.99856.99856 0 01-.49 1.87268h-3.60343v.855h5.42687a2.44 2.44 0 01-2.379 1.90939h-2.62039v.85211l4.46711 5.85068.67968-.51865-4.06953-5.3292 1.94685 0a1.11879 1.11879 0 00.296-.038 3.43836 3.43836 0 002.37329-2.07183.99887.99887 0 01.93093-.65452h1.01323v-.855h-.94048a1.00092 1.00092 0 01-.94716-.70332 3.26766 3.26766 0 00-.80116-1.29724c-.03827-.03828-.07964-.07218-.11945-.10832h2.80825z"></path><circle cx="307.363" cy="214.773" r="8.828" fill="#f9e0c0"></circle><path fill="#8b9d36" d="M305.32578,219.37746H305.316a.99941.99941,0,0,1-.72071-.31738l-2.92578-3.13379a.99978.99978,0,1,1,1.46094-1.36524l2.21,2.36622,6.26758-6.45508a1,1,0,1,1,1.43554,1.39258l-7,7.209A.99941.99941,0,0,1,305.32578,219.37746Z"></path><circle cx="486.658" cy="120.278" r="18.001" fill="#f9e0c0"></circle><path fill="#ffba55" d="M493.71226,118.16311h-1.41163v-2.82327a5.64221,5.64221,0,0,0-11.28442,0v2.82327h-1.41164a1.40884,1.40884,0,0,0-1.41163,1.41163v9.87709a1.40516,1.40516,0,0,0,1.41163,1.40731h14.10769a1.40516,1.40516,0,0,0,1.41164-1.40731v-9.87709A1.40884,1.40884,0,0,0,493.71226,118.16311Zm-7.05381,7.75746a2.11528,2.11528,0,1,1,2.11527-2.11528A2.11505,2.11505,0,0,1,486.65845,125.92057Zm2.82326-7.75746h-5.64653v-2.82327a2.82327,2.82327,0,1,1,5.64653,0Z"></path><circle cx="213.342" cy="259.896" r="18.001" fill="#f9e0c0"></circle><path fill="#d1cfd1" d="M187.08967,377.25442a18.3321,18.3321,0,0,1,2.74092-.45182c.683.02517.41337,1.07845.41337,1.07845s2.04082,1.8388,2.015,2.83557,2.6875.0376,2.6875.0376l2.23724.65571-1.72341,4.2525-2.48973,4.687-1.7679.85012-.41707-.307-1.01191,2.21611.10078,1.70134-3.84868-3.10776-3.10209-3.94134-.38786-3.02924-.79708-2.67751.12214-1.71631,2.85033.587.28483-1.9375,1.06043-.64944.21864-1.11485Z"></path><path fill="#b7b7b7" d="M190.9625 382.771l-.22852-.44532a14.10058 14.10058 0 001.31836-1.749l.41407.2793A10.35062 10.35062 0 01190.9625 382.771zM187.66172 380.96047l-.26953-.42188 2.5625-1.63379-1.14942-1.35937.45508-.05859a3.16317 3.16317 0 011.06055.15625l-.1543.47656c-.05957-.01953-.165-.04981-.28613-.07715l.82617.97559z"></path><polygon fill="#b7b7b7" points="193.124 383.717 192.717 383.426 194.744 380.609 195.15 380.9 193.124 383.717"></polygon><rect width="5.464" height=".5" x="190.056" y="386.856" fill="#b7b7b7" transform="rotate(-23.962 192.788 387.106)"></rect><rect width="1.945" height=".5" x="183.614" y="381.64" fill="#b7b7b7" transform="rotate(-82.597 184.586 381.888)"></rect><rect width="2.974" height=".5" x="184.435" y="379.568" fill="#b7b7b7" transform="rotate(-84.846 185.922 379.818)"></rect><polygon fill="#b7b7b7" points="184.265 384.805 183.912 384.452 186.307 382.062 186.661 382.416 184.265 384.805"></polygon><path fill="#b7b7b7" d="M191.24082,391.7466l-2.47949-2.65918-2.25781-.77734-1.93457-2.01856a2.95411,2.95411,0,0,0-1.85743-.31738l-.09668-.49023a3.3917,3.3917,0,0,1,2.24219.39843c.626.38282,3.16113-.1582,4.61426-.59179l.25488-.07618Zm-4.41894-3.82715,2.26171.78028,1.24707,1.33789-.97168-4.19434a16.61776,16.61776,0,0,1-3.89355.66113Z"></path><polygon fill="#b7b7b7" points="192.529 385.461 190.468 383.81 190.373 382.756 189.043 384.063 187.62 381.363 187.094 384.797 186.6 384.721 187.354 379.787 189.171 383.235 190.775 381.661 190.947 383.552 192.582 384.862 196.434 382.744 196.674 383.181 192.529 385.461"></polygon><path fill="#d1cfd1" d="M216.28524,383.77908a18.33317,18.33317,0,0,1-1.49558,2.34095c-.47515.49125-1.07852-.41319-1.07852-.41319s-2.73173.28936-3.456-.396-1.824,1.97414-1.824,1.97414l-1.98288,1.22611-2.01177-4.12392-1.82289-4.98435.549-1.88328.50708-.10511-.97236-2.23375-1.333-1.062,4.88389-.78623,5.00507.32622,2.51268,1.73584,2.52451,1.19636,1.19516,1.23783-2.34148,1.72812,1.251,1.50668-.22553,1.22287.68324.90768Z"></path><path fill="#b7b7b7" d="M210.01328 385.3716a10.25485 10.25485 0 01-.41894-2.39844l.48242.12891a14.1034 14.1034 0 00.4209 2.14844zM213.8375 385.92238l-.25195-.43164c.05468-.03222.14746-.08984.249-.16211l-1.27832-.03808.58984-3.5625.49414.082-.498 2.998 1.78027.05274-.26074.37793A3.01043 3.01043 0 01213.8375 385.92238z"></path><rect width=".5" height="3.47" x="207.81" y="383.855" fill="#b7b7b7" transform="rotate(-12.366 208.06 385.59)"></rect><rect width="5.464" height=".501" x="202.416" y="381.184" fill="#b7b7b7" transform="rotate(-72.06 205.148 381.434)"></rect><rect width=".5" height="1.946" x="214.26" y="377.846" fill="#b7b7b7" transform="rotate(-40.685 214.51 378.82)"></rect><polygon fill="#b7b7b7" points="215.986 382.457 213.963 380.278 214.33 379.938 216.353 382.117 215.986 382.457"></polygon><polygon fill="#b7b7b7" points="212.732 380.01 212.555 376.631 213.055 376.606 213.232 379.985 212.732 380.01"></polygon><path fill="#b7b7b7" d="M208.60215,380.42141l-5.87207-3.23926,3.63476-.06738,2.08789-1.16016,2.79395-.09082a2.94511,2.94511,0,0,0,1.47754-1.16895l.42969.25586a3.40277,3.40277,0,0,1-1.7959,1.40235c-.70313.207-1.99414,2.458-2.64258,3.82812ZM204.609,377.647l3.77051,2.08008a15.57615,15.57615,0,0,1,2.11035-3.33789l-1.959.06348-2.09277,1.16113Z"></path><polygon fill="#b7b7b7" points="205.958 387.063 205.471 386.95 206.546 382.341 209.151 381.912 209.999 382.544 209.916 380.682 212.875 381.427 210.671 378.742 211.057 378.425 214.224 382.283 210.445 381.331 210.546 383.578 209.022 382.439 206.956 382.781 205.958 387.063"></polygon><path fill="#d1cfd1" d="M215.24437,434.02517a18.33223,18.33223,0,0,1,2.07133-1.851c.59-.345.92718.68866.92718.68866s2.7086.45785,3.22126,1.31307,2.28866-1.40929,2.28866-1.40929l2.24-.64612.82546,4.5136.41158,5.29125-1.03644,1.66552-.51665-.03549.33413,2.41319.99732,1.382-4.915-.5596-4.73179-1.66353-1.95165-2.349-2.10848-1.83268-.81718-1.51422,2.72069-1.03286-.79846-1.78815.54687-1.11679-.41323-1.05827Z"></path><path fill="#b7b7b7" d="M221.47129 436.605l-.43164-.25391a14.08819 14.08819 0 00.1748-2.18164l.5.01367A10.39882 10.39882 0 01221.47129 436.605zM217.71348 436.84621l-.45313-.21094 1.28809-2.7539-1.7002-.53028.35254-.29394a3.02586 3.02586 0 01.97949-.43653l.125.48438c-.06054.01562-.166.04687-.28418.08887l1.22266.38086z"></path><polygon fill="#b7b7b7" points="223.804 436.246 223.304 436.216 223.503 432.751 224.003 432.781 223.804 436.246"></polygon><polygon fill="#b7b7b7" points="224.034 441.701 223.618 441.423 226.639 436.871 227.055 437.148 224.034 441.701"></polygon><polygon fill="#b7b7b7" points="215.801 440.267 214.978 438.504 215.431 438.293 216.254 440.056 215.801 440.267"></polygon><polygon fill="#b7b7b7" points="216.092 438.251 214.73 435.608 215.175 435.379 216.538 438.022 216.092 438.251"></polygon><rect width="3.384" height=".5" x="215.344" y="439.958" fill="#b7b7b7" transform="rotate(-77.374 217.035 440.208)"></rect><path fill="#b7b7b7" d="M226.51816,444.03273l-3.5166-.916-2.26367.56933-2.77539-.67968a2.91988,2.91988,0,0,0-1.7373.72656l-.34571-.36133a3.40032,3.40032,0,0,1,2.10645-.86621c.7334-.00977,2.583-1.83008,3.57715-2.97461l.17382-.20117Zm-7.68554-1.32812,1.90332.46582,2.26758-.56934,1.83105.47657-3.07031-3.01954A15.59923,15.59923,0,0,1,218.83262,442.70461Z"></path><polygon fill="#b7b7b7" points="218.836 440.59 216.826 436.022 220.209 437.958 220.717 435.768 221.878 437.273 223.959 437.502 226.076 433.648 226.513 433.888 224.236 438.036 221.612 437.748 220.965 436.909 220.543 438.725 217.894 437.209 219.293 440.389 218.836 440.59"></polygon><polygon fill="#a2aee6" points="177.065 447.172 214.937 447.172 219.921 388.994 172.081 388.994 177.065 447.172"></polygon><path fill="#4f66d0" d="M214.93747,447.172c-2.94034-9.76648-5.99535-19.49564-9.06775-29.21915-1.51518-4.8686-3.10483-9.71292-4.65949-14.56869l-4.68675-14.55979a.54885.54885,0,0,0-1.04488,0l-4.68769,14.55949c-1.55318,4.85621-3.14591,9.69959-4.66043,14.5684l-4.58812,14.59189L177.06461,447.172l4.99049-14.461,4.88-14.49691c1.64161-4.82746,3.205-9.68034,4.8078-14.5204l4.78055-14.52932h-1.04475l4.78142,14.529c1.60145,4.8405,3.16787,9.69245,4.80874,14.52012C208.30853,427.8826,211.5657,437.546,214.93747,447.172Z"></path><path fill="#4f66d0" d="M219.92071,388.99432c-4.19637,9.61-8.28129,19.26585-12.34929,28.92867l-6.05248,14.51455L195.493,446.963h1.01614L190.484,432.43717c-2.01738-4.83819-3.99643-9.6922-6.05154-14.51492l-6.12184-14.48606-6.22933-14.44187,5.73056,14.64694,5.838,14.60275c1.93145,4.87354,3.939,9.7158,5.9082,14.57387l5.93479,14.563a.54871.54871,0,0,0,1.01628,0l5.93392-14.56331,5.90733-14.57425C212.25562,408.51355,216.144,398.77687,219.92071,388.99432Z"></path><path fill="#4f66d0" d="M217.42912,421.07313c-3.57137-.22684-7.14268-.33312-10.71405-.42113-3.57131-.10055-7.14269-.11472-10.71406-.12853-3.57131.01233-7.14268.02692-10.714.1266l-5.357.15345c-1.78569.09138-3.57138.1449-5.35707.26961,1.78569.12473,3.57138.17826,5.35707.26963l5.357.15345c3.57131.09968,7.14268.11427,10.714.1266,3.57137-.01383,7.14275-.028,10.71406-.12853C210.28644,421.40627,213.85775,421.3,217.42912,421.07313Z"></path><rect width="52.002" height="5.258" x="170" y="383.736" fill="#4f66d0" rx="1.42" transform="rotate(-180 196.001 386.365)"></rect><path fill="#ffba55" d="M220.46846,250.68985a.71.71,0,0,0-.71-.71H206.9247a.71.71,0,0,0-.71.71v.091a.71.71,0,0,0,.71.71h4.67666a4.31089,4.31089,0,0,1,4.02959,2.79369.70727.70727,0,0,1-.6781.93345H206.9247a.71.71,0,0,0-.71.71v.091a.71.71,0,0,0,.71.71H214.794a.7168.7168,0,0,1,.62745,1.05444,4.30818,4.30818,0,0,1-3.82006,2.32013h-3.92115a.71.71,0,0,0-.71.71v.55593a.71.71,0,0,0,.14568.43086l7.31854,9.58523a.71.71,0,0,0,.995.13357l.07231-.05518a.71.71,0,0,0,.13357-.99534l-5.89-7.71317a.71.71,0,0,1,.56429-1.1409h2.1686a.81725.81725,0,0,0,.19942-.02449,6.0433,6.0433,0,0,0,4.54482-4.29728.72757.72757,0,0,1,.69477-.5638h1.84121a.71.71,0,0,0,.71-.71v-.091a.71.71,0,0,0-.71-.71h-1.72365a.73.73,0,0,1-.72528-.56643,5.76183,5.76183,0,0,0-1.59312-2.96926c-.06766-.06765-.14076-.12757-.21113-.19145h4.25318a.71.71,0,0,0,.71-.71Z"></path><rect width="500" height="2" x="100" y="446.722" fill="#935b50"></rect></svg>