<svg xmlns="http://www.w3.org/2000/svg" viewBox="0 0 750 500"><g id="freepik--background-complete--inject-6"><path d="M150.82,303.87a27.12,27.12,0,0,1,6.55-2.85l1.35-6.48,11-.19,1.58,6.43a27.12,27.12,0,0,1,6.65,2.61l5.54-3.63,7.88,7.62L187.9,313a27.12,27.12,0,0,1,2.85,6.55l6.48,1.35.19,11L191,333.48a27.15,27.15,0,0,1-2.62,6.65l3.63,5.54-7.61,7.88-5.66-3.43a26.7,26.7,0,0,1-6.55,2.84l-1.35,6.49-11,.19-1.58-6.43a27,27,0,0,1-6.65-2.62l-5.54,3.63-7.88-7.61,3.43-5.66a27,27,0,0,1-2.85-6.56l-6.48-1.34-.19-11,6.43-1.58a27,27,0,0,1,2.62-6.65l-3.63-5.54,7.61-7.88,5.66,3.43Zm5.84,14.6a11.76,11.76,0,1,0,16.63-.29A11.75,11.75,0,0,0,156.66,318.47Z" style="fill:#ebebeb"></path><path d="M619.33,52.84a23.36,23.36,0,0,1,5.72-2.49l1.17-5.65,9.55-.17,1.38,5.61a23.11,23.11,0,0,1,5.79,2.28l4.83-3.16,6.87,6.63-3,4.94a23.1,23.1,0,0,1,2.48,5.71l5.65,1.17.17,9.55-5.61,1.38a23.11,23.11,0,0,1-2.28,5.79l3.17,4.83-6.64,6.87-4.93-3A23.43,23.43,0,0,1,638,95.62l-1.18,5.65-9.55.17-1.38-5.61a23.11,23.11,0,0,1-5.79-2.28l-4.83,3.17-6.87-6.64,3-4.93a23.43,23.43,0,0,1-2.48-5.71l-5.65-1.18L603,68.71l5.61-1.37a23.18,23.18,0,0,1,2.28-5.8l-3.17-4.83,6.64-6.87,4.93,3Zm5.1,12.72a10.24,10.24,0,1,0,14.48-.26A10.24,10.24,0,0,0,624.43,65.56Z" style="fill:#f5f5f5"></path><path d="M75.18,55.76a26.8,26.8,0,0,1,6.58-2.86l1.35-6.51,11-.2,1.58,6.47a26.66,26.66,0,0,1,6.68,2.62l5.56-3.64,7.92,7.64L112.41,65a26.8,26.8,0,0,1,2.86,6.58l6.51,1.35.2,11-6.46,1.58a27.24,27.24,0,0,1-2.63,6.68l3.64,5.56-7.64,7.92-5.69-3.45a26.8,26.8,0,0,1-6.58,2.86l-1.35,6.51-11,.2-1.58-6.46A27.24,27.24,0,0,1,76,102.68l-5.56,3.64-7.92-7.64L66,93a26.8,26.8,0,0,1-2.86-6.58L56.6,85.06l-.2-11,6.47-1.58a26.81,26.81,0,0,1,2.62-6.68l-3.64-5.56,7.64-7.92,5.69,3.45ZM81,70.42a11.81,11.81,0,1,0,16.7-.29A11.8,11.8,0,0,0,81,70.42Z" style="fill:#f5f5f5"></path><path d="M122.37,390c4.34-3.12,9.82-4.25,15.16-4.16,2.87.05,5.91.46,8.13,2.28s3.12,5.47,1.2,7.6a7.35,7.35,0,0,1-4.62,1.93c-4.09.56-8.73.51-11.62,3.45-1.66,1.67-2.55,4.18-4.67,5.2a5.32,5.32,0,0,1-6.17-1.72,9.09,9.09,0,0,1-1.63-6.53A10.23,10.23,0,0,1,122.37,390Z" style="fill:#ebebeb"></path><path d="M108.55,379c3.47,3.68,8.85,1.5,11.07-1.39s2.78-6.67,3.26-10.28c1.11-8.24,2.18-16.87-.7-24.67a13.62,13.62,0,0,0-4.07-6.13,7.11,7.11,0,0,0-7-1.24c-2.7,1.16-4,4.17-4.92,7a58.47,58.47,0,0,0-2,25.65c.58,4,1.67,8.12,4.41,11.08" style="fill:#ebebeb"></path><path d="M102.57,397.11c2.36-3.82,2.17-8.86.27-12.93s-5.32-7.27-9.07-9.74a40.94,40.94,0,0,0-14.55-5.92,14.44,14.44,0,0,0-6.17-.13,6.36,6.36,0,0,0-4.6,3.8c-1,2.89.82,5.95,2.67,8.39a103,103,0,0,0,10.77,12.09c3.13,3,6.65,5.91,10.89,6.85s8.38.15,10.1-2.95" style="fill:#ebebeb"></path><path d="M117.49,432.75a9.58,9.58,0,0,0,0-1.9c-.07-1.38-.15-3.11-.25-5.16a72.56,72.56,0,0,1,0-7.63,57.89,57.89,0,0,1,1.41-9.2,32.86,32.86,0,0,1,3.32-8.63,17,17,0,0,1,5-5.57,16.07,16.07,0,0,1,4.57-2.19,8.68,8.68,0,0,0,1.82-.55,9.43,9.43,0,0,0-1.9.25,14.68,14.68,0,0,0-4.79,2,17,17,0,0,0-5.3,5.65,32.2,32.2,0,0,0-3.46,8.81,55.15,55.15,0,0,0-1.37,9.35,65.18,65.18,0,0,0,.13,7.7c.15,2.18.35,3.94.5,5.15A8.09,8.09,0,0,0,117.49,432.75Z" style="fill:#e0e0e0"></path><path d="M117.26,436.92a3.36,3.36,0,0,0-.08-.87c-.1-.65-.22-1.46-.37-2.47-.32-2.14-.78-5.25-1.23-9.1-.94-7.7-1.5-16.05-1.94-27.87-.41-11.12-.67-24.1-.18-32.63.09-1.93.21-3.68.33-5.22s.21-2.86.33-3.93.16-1.84.22-2.49a3.91,3.91,0,0,0,0-.88,3.4,3.4,0,0,0-.18.86c-.1.65-.22,1.47-.37,2.47s-.31,2.4-.46,3.93S113,362,112.91,364a283.24,283.24,0,0,0-.4,30.35c.45,11.85,1.44,22.55,2.52,30.25.53,3.85,1.07,6.95,1.48,9.08.21,1,.38,1.81.52,2.45A3,3,0,0,0,117.26,436.92Z" style="fill:#e0e0e0"></path><path d="M114.29,425a15.83,15.83,0,0,0-.37-2.38c-.31-1.51-.85-3.68-1.67-6.32a88.79,88.79,0,0,0-3.48-9.06,78.52,78.52,0,0,0-5.55-10.5,59.91,59.91,0,0,0-14.15-16.22A30,30,0,0,0,86,378.45c-.47-.29-.89-.59-1.3-.81l-1.16-.57a16.45,16.45,0,0,0-2.18-1c-.09.18,3.11,1.47,7.41,4.88a63.08,63.08,0,0,1,13.85,16.19,88.68,88.68,0,0,1,5.56,10.4,95.57,95.57,0,0,1,3.6,8.95c.88,2.6,1.49,4.74,1.88,6.23A16.59,16.59,0,0,0,114.29,425Z" style="fill:#e0e0e0"></path><polygon points="92.72 424.75 94.79 453.17 131.29 453.17 133.37 424.75 92.72 424.75" style="fill:#e0e0e0"></polygon><rect x="89.19" y="413.55" width="48.53" height="11.2" style="fill:#e0e0e0"></rect><polygon points="89.19 452.08 89.19 455.19 91.47 455.19 136.92 455.19 136.92 452.08 89.19 452.08" style="fill:#ebebeb"></polygon><polygon points="93.71 460.65 91.47 455.19 135.18 455.19 132.58 460.65 93.71 460.65" style="fill:#e0e0e0"></polygon><path d="M132.69,434s-.05.1-.17.26L132,435l-2.13,2.72-.1.12-.09-.13c-1.33-1.85-3.12-4.32-5.22-7.22h.3l-5.14,7.28-.17.23-.18-.22c-1.89-2.26-4-4.71-6.1-7.26h.36l-.34.42-5.45,6.84-.19.23-.16-.24-5.15-7.28h.3l-6.34,7.22-.11.13-.09-.14c-.83-1.41-1.5-2.52-2-3.34l-.51-.88a1.82,1.82,0,0,1-.16-.32s.08.09.22.28.33.51.56.86c.51.79,1.21,1.89,2.08,3.27l-.2,0,6.24-7.31.16-.18.14.2,5.19,7.25h-.35l5.44-6.85.34-.42.17-.22.18.21,6.09,7.27-.35,0,5.2-7.25.15-.21.15.21c2.06,2.94,3.81,5.44,5.11,7.31h-.18l2.21-2.65.59-.69C132.61,434.11,132.68,434,132.69,434Z" style="fill:#f5f5f5"></path><path d="M133.88,424.57c0,.12-9.15.22-20.43.22S93,424.69,93,424.57s9.15-.23,20.43-.23S133.88,424.44,133.88,424.57Z" style="fill:#f5f5f5"></path><path d="M135.72,455.49c0,.13-9.94.23-22.2.23s-22.2-.1-22.2-.23,9.94-.22,22.2-.22S135.72,455.37,135.72,455.49Z" style="fill:#f5f5f5"></path><path d="M557.68,385s-.09-.68-.33-1.89a23.31,23.31,0,0,0-1.51-5,18.84,18.84,0,0,0-4.3-6.3,12,12,0,0,0-16.86-.06,18.86,18.86,0,0,0-4.32,6.28,23.75,23.75,0,0,0-1.53,5c-.24,1.21-.29,1.89-.34,1.88a2.6,2.6,0,0,1,0-.49c0-.33.06-.81.15-1.42a21.29,21.29,0,0,1,1.41-5.06,18.58,18.58,0,0,1,4.33-6.47,12.34,12.34,0,0,1,17.45.05,18.94,18.94,0,0,1,4.3,6.49,21.87,21.87,0,0,1,1.39,5.07c.09.61.13,1.09.15,1.42A1.62,1.62,0,0,1,557.68,385Z" style="fill:#e0e0e0"></path><path d="M562.72,385s-.09-.68-.33-1.89a23.31,23.31,0,0,0-1.51-5,18.84,18.84,0,0,0-4.3-6.3,12,12,0,0,0-16.85-.06A18.9,18.9,0,0,0,535.4,378a24.37,24.37,0,0,0-1.53,5c-.24,1.21-.29,1.89-.34,1.88a2.6,2.6,0,0,1,0-.49c0-.33.06-.81.15-1.42a21.29,21.29,0,0,1,1.41-5.06,18.72,18.72,0,0,1,4.33-6.47,12.34,12.34,0,0,1,17.45.05,18.94,18.94,0,0,1,4.3,6.49,21.87,21.87,0,0,1,1.39,5.07c.09.61.13,1.09.15,1.42A1.62,1.62,0,0,1,562.72,385Z" style="fill:#e0e0e0"></path><polygon points="514.07 383.15 570.99 382.71 572.24 460.31 508.36 460.31 514.07 383.15" style="fill:#ebebeb"></polygon><polygon points="570.99 382.71 578.14 382.71 584.29 460.31 572.24 460.31 570.99 382.71" style="fill:#e0e0e0"></polygon><rect x="524.58" y="413.26" width="32.42" height="6.24" style="fill:#fff"></rect><path d="M673.66,210.2s-13.33,5.07-10.14,19.27,9.49,25.33,16.09,30,15.37,2.31,18.24-1c1.65-1.89-1.89-12.3-7.31-12.86-2.49-.26-5,5.89-8.93,3.38s-9.79-16-9.3-19.37,6-2.94,7.93-4.19C683.84,223.14,678.89,206.87,673.66,210.2Z" style="fill:#e0e0e0"></path></g><g id="freepik--Floor--inject-6"><path d="M53.46,460.65c0-.14,142.89-.26,319.11-.26s319.13.12,319.13.26-142.85.26-319.13.26S53.46,460.8,53.46,460.65Z" style="fill:#263238"></path></g><g id="freepik--Device--inject-6"><rect x="237.49" y="48.43" width="287.09" height="412" rx="12.81" style="fill:#263238"></rect><path d="M511.76,460.42l.9-.06a6.44,6.44,0,0,0,1.1-.13,10.9,10.9,0,0,0,1.5-.33,12.85,12.85,0,0,0,7.82-6.41,13.45,13.45,0,0,0,1.19-3.41,20.79,20.79,0,0,0,.24-4c0-2.83,0-5.92,0-9.27,0-6.71,0-14.44,0-23.14,0-34.83-.06-85.21-.1-147.47,0-31.12,0-65.22,0-101.83q0-27.45,0-56.73V78q0-7.53,0-15.14a19.5,19.5,0,0,0-.2-3.76,12,12,0,0,0-1.18-3.54,12.65,12.65,0,0,0-5.18-5.32,13.49,13.49,0,0,0-3.54-1.27,19.27,19.27,0,0,0-3.81-.25H250.34A12.51,12.51,0,0,0,238,58.92a22.38,22.38,0,0,0-.22,4.35v48.18q0,34.7,0,68.33c0,44.8,0,88,0,129.17s0,80.28,0,116.89v13.61c0,2.25,0,4.48,0,6.71a22.53,22.53,0,0,0,.15,3.3,12.49,12.49,0,0,0,.88,3.12,12.63,12.63,0,0,0,9.8,7.48,21.25,21.25,0,0,0,3.2.14h9.63l48.86,0,147.46.09,40.09.06,10.42,0,3.55,0-3.55,0-10.42,0-40.09.06-147.46.09-48.86,0h-9.63a21.21,21.21,0,0,1-3.27-.14,13.11,13.11,0,0,1-10.16-7.74,13.41,13.41,0,0,1-.91-3.25,21.05,21.05,0,0,1-.15-3.36c0-2.23,0-4.46,0-6.71V425.84c0-36.61,0-75.72,0-116.89s0-84.37,0-129.17q0-33.6,0-68.33V63.27a23.13,23.13,0,0,1,.23-4.46,13.08,13.08,0,0,1,12.91-10.67H510.4a19.87,19.87,0,0,1,3.91.25,14.36,14.36,0,0,1,3.7,1.33,13.35,13.35,0,0,1,5.39,5.55A12.73,12.73,0,0,1,524.63,59a20,20,0,0,1,.21,3.85V78q0,15,0,29.66,0,29.25,0,56.73c0,36.61,0,70.71,0,101.83,0,62.26-.07,112.64-.09,147.47,0,8.7,0,16.43,0,23.14,0,3.35,0,6.44,0,9.27a21.19,21.19,0,0,1-.25,4,13.7,13.7,0,0,1-1.22,3.44,13,13,0,0,1-4,4.52,12.72,12.72,0,0,1-3.94,1.88,10,10,0,0,1-1.51.33,6.25,6.25,0,0,1-1.11.11C512.07,460.42,511.76,460.42,511.76,460.42Z" style="fill:#263238"></path><circle cx="381.03" cy="439.72" r="11.02" transform="translate(-199.33 398.22) rotate(-45)" style="fill:#455a64"></circle><path d="M410.45,70.2H351.82a4.09,4.09,0,0,1-4.09-4.09h0A4.09,4.09,0,0,1,351.82,62h58.63a4.09,4.09,0,0,1,4.09,4.09h0A4.09,4.09,0,0,1,410.45,70.2Z" style="fill:#455a64"></path><rect x="246.29" y="77.82" width="268.98" height="344.07" style="fill:#fff"></rect><path d="M373.33,265H300.68a5.6,5.6,0,0,1-5.6-5.6h0a5.6,5.6,0,0,1,5.6-5.6h72.65a5.6,5.6,0,0,1,5.6,5.6h0A5.6,5.6,0,0,1,373.33,265Z" style="fill:#e0e0e0"></path><path d="M470.67,262.4H449.23a5.6,5.6,0,0,1-5.6-5.6h0a5.61,5.61,0,0,1,5.6-5.61h21.44a5.6,5.6,0,0,1,5.6,5.61h0A5.6,5.6,0,0,1,470.67,262.4Z" style="fill:#e0e0e0"></path><path d="M397.86,288.73H300.68a5.6,5.6,0,0,1-5.6-5.6h0a5.6,5.6,0,0,1,5.6-5.6h97.18a5.6,5.6,0,0,1,5.6,5.6h0A5.6,5.6,0,0,1,397.86,288.73Z" style="fill:#e0e0e0"></path><path d="M470.67,286.18H449.23a5.6,5.6,0,0,1-5.6-5.6h0a5.6,5.6,0,0,1,5.6-5.6h21.44a5.59,5.59,0,0,1,5.6,5.6h0A5.6,5.6,0,0,1,470.67,286.18Z" style="fill:#e0e0e0"></path><path d="M340.22,312.51H300.68a5.6,5.6,0,0,1-5.6-5.6h0a5.6,5.6,0,0,1,5.6-5.6h39.54a5.6,5.6,0,0,1,5.6,5.6h0A5.59,5.59,0,0,1,340.22,312.51Z" style="fill:#e0e0e0"></path><path d="M470.67,310H449.23a5.6,5.6,0,0,1-5.6-5.6h0a5.6,5.6,0,0,1,5.6-5.6h21.44a5.6,5.6,0,0,1,5.6,5.6h0A5.6,5.6,0,0,1,470.67,310Z" style="fill:#e0e0e0"></path><path d="M470.67,332.59H449.23a5.6,5.6,0,0,1-5.6-5.6h0a5.6,5.6,0,0,1,5.6-5.6h21.44a5.6,5.6,0,0,1,5.6,5.6h0A5.59,5.59,0,0,1,470.67,332.59Z" style="fill:#455a64"></path><rect x="343.69" y="143.48" width="81.86" height="81.86" rx="3.84" style="fill:#CFD8DC"></rect><path d="M398.26,190.76h-27a.38.38,0,0,1-.38-.38.37.37,0,0,1,.38-.37H398L401,172.52H368.68a.38.38,0,1,1,0-.75h32.81a.39.39,0,0,1,.29.13.39.39,0,0,1,.08.31l-3.23,18.24A.39.39,0,0,1,398.26,190.76Z" style="fill:#fff"></path><path d="M397.37,197.13h0l-25.74-.08a.37.37,0,0,1-.37-.33l-3.73-29.06h-7.94a.37.37,0,0,1-.38-.37.38.38,0,0,1,.38-.38h8.27a.38.38,0,0,1,.37.33L372,196.3l25.42.08a.38.38,0,0,1,.37.38A.37.37,0,0,1,397.37,197.13Z" style="fill:#fff"></path><path d="M375.82,206.3a3.58,3.58,0,1,1,3.58-3.58A3.58,3.58,0,0,1,375.82,206.3Zm0-6.41a2.83,2.83,0,1,0,2.83,2.83A2.83,2.83,0,0,0,375.82,199.89Z" style="fill:#fff"></path><path d="M393.59,206.3a3.58,3.58,0,1,1,3.58-3.58A3.59,3.59,0,0,1,393.59,206.3Zm0-6.41a2.83,2.83,0,1,0,2.83,2.83A2.83,2.83,0,0,0,393.59,199.89Z" style="fill:#fff"></path><path d="M379.57,190.76a.38.38,0,0,1-.37-.36l-1.1-17.64a.37.37,0,0,1,.35-.4.37.37,0,0,1,.4.35l1.1,17.65a.38.38,0,0,1-.35.39Z" style="fill:#fff"></path><path d="M389.46,190.76h0a.37.37,0,0,1-.36-.39l1-17.65a.36.36,0,0,1,.39-.35.38.38,0,0,1,.36.39l-1,17.65A.37.37,0,0,1,389.46,190.76Z" style="fill:#fff"></path><path d="M369.68,181.93a.37.37,0,0,1-.38-.37.38.38,0,0,1,.37-.38l30.2-.29h0a.37.37,0,0,1,.37.37.38.38,0,0,1-.37.38l-30.2.29Z" style="fill:#fff"></path><circle cx="403.17" cy="169.17" r="8.84" transform="translate(-34.04 166.19) rotate(-22.37)" style="fill:#fff"></circle><path d="M405.71,169.47a2.17,2.17,0,0,1,.56,1.51,2.33,2.33,0,0,1-.37,1.28,2.49,2.49,0,0,1-1.1.93,4.2,4.2,0,0,1-1.83.36,6.14,6.14,0,0,1-1.65-.23,4,4,0,0,1-1.38-.63l.71-1.41a3.46,3.46,0,0,0,1.05.53,4,4,0,0,0,1.23.19,1.93,1.93,0,0,0,1.09-.27.85.85,0,0,0,.39-.75c0-.65-.49-1-1.48-1h-.85v-1.22l1.64-1.85h-3.39v-1.48h5.57v1.2l-1.79,2A2.73,2.73,0,0,1,405.71,169.47Z" style="fill:#CFD8DC"></path><rect x="246.29" y="77.82" width="268.98" height="37.09" style="fill:#e0e0e0"></rect><path d="M268.52,97.14a4.29,4.29,0,1,1-4.29-4.29A4.3,4.3,0,0,1,268.52,97.14Z" style="fill:#fff"></path><circle cx="276.96" cy="97.14" r="4.29" style="fill:#fff"></circle><circle cx="289.68" cy="97.14" r="4.29" style="fill:#fff"></circle><path d="M412.16,388.1H353.42a18.54,18.54,0,0,1-18.54-18.54h0A18.54,18.54,0,0,1,353.42,351h58.74a18.54,18.54,0,0,1,18.54,18.53h0A18.54,18.54,0,0,1,412.16,388.1Z" style="fill:#CFD8DC"></path><path d="M378.5,368.61c0,1.67-1.26,2.71-3.27,2.71H374v1.92h-2.08v-7.36h3.36C377.24,365.88,378.5,366.93,378.5,368.61Zm-2.1,0c0-.69-.43-1.09-1.29-1.09H374v2.16h1.16C376,369.68,376.4,369.28,376.4,368.61Z" style="fill:#fff"></path><path d="M384.08,371.82H381l-.58,1.42h-2.13l3.25-7.36h2.05l3.26,7.36h-2.16Zm-.61-1.54-1-2.36-.94,2.36Z" style="fill:#fff"></path><path d="M390.89,370.61v2.63h-2.08v-2.67L386,365.88h2.2l1.75,2.93,1.74-2.93h2Z" style="fill:#fff"></path></g><g id="freepik--Bags--inject-6"><path d="M243.83,367.87c-.06,0-.12-.84-.41-2.33a28.9,28.9,0,0,0-1.86-6.13,23.32,23.32,0,0,0-5.29-7.77,14.79,14.79,0,0,0-20.78-.07,23.36,23.36,0,0,0-5.34,7.75,29.12,29.12,0,0,0-1.88,6.12c-.3,1.49-.36,2.33-.42,2.32a2.82,2.82,0,0,1,0-.61,16.65,16.65,0,0,1,.19-1.75,26.7,26.7,0,0,1,1.73-6.24,23.12,23.12,0,0,1,5.35-8,15.2,15.2,0,0,1,21.5.07,23.29,23.29,0,0,1,5.31,8,26.86,26.86,0,0,1,1.7,6.24,16.65,16.65,0,0,1,.19,1.75A2.5,2.5,0,0,1,243.83,367.87Z" style="fill:#455a64"></path><path d="M250.05,367.87c-.06,0-.12-.84-.41-2.33a29.51,29.51,0,0,0-1.86-6.13,23.51,23.51,0,0,0-5.3-7.77,14.79,14.79,0,0,0-20.78-.07,23.17,23.17,0,0,0-5.33,7.75,29.26,29.26,0,0,0-1.89,6.12c-.29,1.49-.35,2.33-.41,2.32a2.18,2.18,0,0,1,0-.61c0-.4.07-1,.18-1.75a27.21,27.21,0,0,1,1.73-6.24,23.12,23.12,0,0,1,5.35-8,15.2,15.2,0,0,1,21.5.07,23.14,23.14,0,0,1,5.31,8,26.48,26.48,0,0,1,1.71,6.24c.11.76.16,1.35.18,1.75A3,3,0,0,1,250.05,367.87Z" style="fill:#455a64"></path><polygon points="190.07 365.65 260.24 365.11 261.77 460.76 183.03 460.76 190.07 365.65" style="fill:#ebebeb"></polygon><polygon points="260.24 365.11 269.05 365.11 276.63 460.76 261.77 460.76 260.24 365.11" style="fill:#e0e0e0"></polygon><rect x="199.43" y="402.77" width="45.94" height="7.7" style="fill:#fff"></rect><path d="M204.66,394.41a38.79,38.79,0,0,0-1.85-7.75,21.91,21.91,0,0,0-4.26-7.12,10.83,10.83,0,0,0-16.65-.07,21.88,21.88,0,0,0-4.29,7.1,38.7,38.7,0,0,0-1.88,7.75,2.08,2.08,0,0,1,0-.57c0-.37.05-.91.15-1.61a26.77,26.77,0,0,1,1.38-5.74,21.74,21.74,0,0,1,4.29-7.35,11.2,11.2,0,0,1,17.35.07,21.6,21.6,0,0,1,4.26,7.37,26.5,26.5,0,0,1,1.36,5.74c.09.7.13,1.25.14,1.62A2,2,0,0,1,204.66,394.41Z" style="fill:#263238"></path><path d="M209.66,394.41a38.47,38.47,0,0,0-1.86-7.75,21.74,21.74,0,0,0-4.26-7.12,10.83,10.83,0,0,0-16.65-.07,21.84,21.84,0,0,0-4.28,7.1,38.7,38.7,0,0,0-1.88,7.75,2.08,2.08,0,0,1,0-.57c0-.37.05-.91.14-1.61a26.77,26.77,0,0,1,1.38-5.74,21.61,21.61,0,0,1,4.3-7.35,11.19,11.19,0,0,1,17.34.07,21.64,21.64,0,0,1,4.27,7.37,27.11,27.11,0,0,1,1.36,5.74c.09.7.13,1.25.14,1.62A2,2,0,0,1,209.66,394.41Z" style="fill:#263238"></path><polygon points="158.94 391.05 215.35 390.66 216.58 460.65 153.28 460.65 158.94 391.05" style="fill:#CFD8DC"></polygon><polygon points="215.35 390.66 222.43 390.66 228.53 460.65 216.58 460.65 215.35 390.66" style="fill:#CFD8DC"></polygon><g style="opacity:0.30000000000000004"><polygon points="215.35 390.66 222.43 390.66 228.53 460.65 216.58 460.65 215.35 390.66"></polygon></g><rect x="168.8" y="414.43" width="36.93" height="7.07" style="fill:#fff"></rect></g><g id="freepik--Tab--inject-6"><rect x="466.08" y="59.48" width="123.78" height="166.36" rx="7.38" style="fill:#fff"></rect><path d="M472.25,59.48H583.71a6.16,6.16,0,0,1,6.16,6.16V79a0,0,0,0,1,0,0H466.08a0,0,0,0,1,0,0V65.64A6.16,6.16,0,0,1,472.25,59.48Z" style="fill:#e0e0e0"></path><path d="M584.78,225.84l.36,0a4.87,4.87,0,0,0,1-.21,5.17,5.17,0,0,0,3.08-2.75,6.25,6.25,0,0,0,.47-1.46,8.73,8.73,0,0,0,.09-1.72c0-1.22,0-2.55,0-4,0-2.89,0-6.22,0-10,0-15,0-36.69-.07-63.49,0-13.4,0-28.08,0-43.84q0-11.82,0-24.43c0-2.1,0-4.21,0-6.34,0-1,0-2.15,0-3.18a5.57,5.57,0,0,0-1.1-2.81,4.91,4.91,0,0,0-2.36-1.7,9.73,9.73,0,0,0-2.93-.22h-6.07l-106,0a4.67,4.67,0,0,0-3.11,1.21A5.55,5.55,0,0,0,466.39,64a10.27,10.27,0,0,0-.09,1.86V116c0,19.29,0,37.89,0,55.61q0,13.31,0,25.9,0,6.3,0,12.41V219a10.2,10.2,0,0,0,.21,2.89,5.15,5.15,0,0,0,3.66,3.64,14.06,14.06,0,0,0,2.61.12H505l58.36.08,15.87,0,4.13,0c.93,0,1.4,0,1.4,0l-1.4,0-4.13,0-15.87,0L505,226H472.75a13.54,13.54,0,0,1-2.68-.12,5.49,5.49,0,0,1-3.93-3.91,10.87,10.87,0,0,1-.24-3V210q0-6.1,0-12.41,0-12.58,0-25.9c0-17.72,0-36.32,0-55.61V65.87a9.91,9.91,0,0,1,.09-2,6,6,0,0,1,1.83-3.36,5.23,5.23,0,0,1,3.39-1.32l106,0h7.58a5.05,5.05,0,0,1,1.54.24,5.37,5.37,0,0,1,2.55,1.83,6.06,6.06,0,0,1,1.18,3c.07,1.11,0,2.15,0,3.22V74q0,12.6,0,24.43c0,15.76,0,30.44,0,43.84,0,26.8,0,48.49-.07,63.49,0,3.75,0,7.08,0,10,0,1.44,0,2.77,0,4a9,9,0,0,1-.1,1.74,6.86,6.86,0,0,1-.49,1.49,5.24,5.24,0,0,1-3.15,2.75,4.49,4.49,0,0,1-1,.18Z" style="fill:#263238"></path><path d="M478.69,69.23a2.88,2.88,0,1,1-2.87-3.12A3,3,0,0,1,478.69,69.23Z" style="fill:#fff"></path><path d="M487,69.23a2.88,2.88,0,1,1-2.87-3.12A3,3,0,0,1,487,69.23Z" style="fill:#fff"></path><path d="M495.24,69.23a2.88,2.88,0,1,1-2.87-3.12A3,3,0,0,1,495.24,69.23Z" style="fill:#fff"></path><path d="M556.07,172.43H504.89a5.07,5.07,0,0,1-5.07-5.07h0a5.07,5.07,0,0,1,5.07-5.08h51.18a5.07,5.07,0,0,1,5.07,5.08h0A5.07,5.07,0,0,1,556.07,172.43Z" style="fill:#e0e0e0"></path><path d="M555.22,151.08H504A5.08,5.08,0,0,1,499,146h0a5.08,5.08,0,0,1,5.07-5.08h51.18a5.08,5.08,0,0,1,5.07,5.08h0A5.08,5.08,0,0,1,555.22,151.08Z" style="fill:#e0e0e0"></path><circle cx="529.63" cy="113.02" r="16.69" transform="translate(75.21 407.61) rotate(-45)" style="fill:#fafafa"></circle><path d="M531.29,113.27a3.82,3.82,0,1,0-2.78,0c-5.87.83-5.61,6.82-5.61,6.82l13.89.06S537.11,114.09,531.29,113.27Z" style="fill:#e0e0e0"></path><path d="M546.32,113a24.7,24.7,0,0,0-.62-4,16,16,0,0,0-1.86-4.4,16.54,16.54,0,0,0-4.22-4.67,16.3,16.3,0,0,0-7-3.06,16.51,16.51,0,0,0-8.65.73,15.56,15.56,0,0,0-4.16,2.24A19.8,19.8,0,0,0,518,101.4a18.67,18.67,0,0,0-1.61,1.91,16.39,16.39,0,0,0,0,19.43,21.11,21.11,0,0,0,1.61,1.91,19.68,19.68,0,0,0,1.86,1.58,15.6,15.6,0,0,0,4.16,2.25,16.54,16.54,0,0,0,19.82-7,15.89,15.89,0,0,0,1.86-4.4,24.7,24.7,0,0,0,.62-4,.8.8,0,0,1,0,.27l0,.8a8.22,8.22,0,0,1-.1,1.29,12.29,12.29,0,0,1-.32,1.74,15.71,15.71,0,0,1-1.81,4.5,16.51,16.51,0,0,1-4.25,4.82,16.68,16.68,0,0,1-7.09,3.19,16.88,16.88,0,0,1-8.89-.7,15.78,15.78,0,0,1-4.29-2.3A15.29,15.29,0,0,1,516,123a16.82,16.82,0,0,1,0-20,15.29,15.29,0,0,1,3.59-3.59,15.75,15.75,0,0,1,4.29-2.29,16.88,16.88,0,0,1,8.89-.71,16.9,16.9,0,0,1,11.34,8,15.94,15.94,0,0,1,1.81,4.5,12.82,12.82,0,0,1,.32,1.74,8.25,8.25,0,0,1,.1,1.3c0,.32,0,.58,0,.79A.8.8,0,0,1,546.32,113Z" style="fill:#263238"></path><path d="M555.75,207.79H504.48a9.91,9.91,0,0,1-9.91-9.9h0a9.91,9.91,0,0,1,9.91-9.9h51.27a9.91,9.91,0,0,1,9.91,9.9h0A9.91,9.91,0,0,1,555.75,207.79Z" style="fill:#CFD8DC"></path></g><g id="freepik--speech-bubble-2--inject-6"><path d="M642.3,153l1.61-7.38a28.73,28.73,0,1,1,6.36,8.11h0Z" style="fill:#fff"></path><path d="M642.3,153s.19,0,.54,0l1.55.12,5.9.49-.1.16h0l-.45-.67.61.53a28.74,28.74,0,0,0,12.2,6.33,27.59,27.59,0,0,0,4.33.69c.75.09,1.53,0,2.31.07l1.19,0,1.21-.11a28.16,28.16,0,0,0,9.93-2.65,28.47,28.47,0,0,0,10.33-43.07l-1.11-1.39-1.22-1.27a28.75,28.75,0,0,0-2.59-2.35,29.43,29.43,0,0,0-5.89-3.56,28.5,28.5,0,0,0-33.74,7.87A28.6,28.6,0,0,0,644,145.53l0,0v0c-.54,2.34-1,4.16-1.24,5.42-.15.61-.26,1.09-.34,1.43s-.13.5-.13.5,0-.16.09-.47.16-.81.28-1.41c.27-1.29.65-3.14,1.14-5.52v.07a28.56,28.56,0,0,1-3.37-13.42,28.95,28.95,0,0,1,46.79-22.74,29.81,29.81,0,0,1,2.64,2.39l1.25,1.3,1.12,1.41a28.9,28.9,0,0,1,4.78,26,29.2,29.2,0,0,1-6.1,10.88A28.6,28.6,0,0,1,671.61,161l-1.22.1-1.21,0c-.8,0-1.58,0-2.35-.08a29.51,29.51,0,0,1-4.37-.73,28.8,28.8,0,0,1-12.26-6.5l.16-.14h0l.12.19-.22,0-5.95-.62L642.8,153Z" style="fill:#263238"></path><path d="M662.29,128H666a3.18,3.18,0,0,1,3.26-3.2,3,3,0,0,1,2.94,1.94,3.36,3.36,0,0,1-.27,3c-.63,1-2,2-4.55,1.55v8.44h3.7v-4.94a7.22,7.22,0,0,0,5.19-7.06c0-5.48-4.9-6.75-7-6.75C667.7,121,662.22,121.41,662.29,128Z" style="fill:#263238"></path><rect x="667.41" y="141.51" width="3.76" height="3.51" style="fill:#263238"></rect></g><g id="freepik--character-2--inject-6"><path d="M532.89,237.8a30.35,30.35,0,0,0,4.14,4.44c1.64,1.2,3,1.16,4.47,3.66s3.21,5.13,3.21,5.13,6.82,2.9,6.58,3.07-2.77,10.16-2.77,10.16l-11.9-6.07-14.21-4L515,246.71l.21-.84-1-1.6s.43-2.26,2.42-1.17c0,0-.86-2.34,2.06-1.36s8.56,4.08,8.94,4,5.39.57,5.39.57l2.15-.8a6,6,0,0,1-2.88-2.34c-.92-1.63-2.33-2.42-1.71-4.07A2.16,2.16,0,0,1,532.89,237.8Z" style="fill:#ffbf9d"></path><path d="M537.25,251.45a4.29,4.29,0,0,1-.79-.13,12,12,0,0,0-2.19-.06,31.24,31.24,0,0,0-7.26,1.5l-.07,0-.06,0-1.58-.56-.79-.29-.06,0,0,0-1.76-2.75a2,2,0,0,0-1-.9,1.26,1.26,0,0,0-1.13.22l.05-.17a22.44,22.44,0,0,1,1,5.13s-.1-.5-.33-1.38-.54-2.14-1-3.67l0-.1.08-.07a1.6,1.6,0,0,1,1.46-.31,2.49,2.49,0,0,1,1.2,1l1.77,2.73-.1-.08.79.28,1.58.57h-.14a28.29,28.29,0,0,1,7.38-1.38,9.73,9.73,0,0,1,2.22.19A2.89,2.89,0,0,1,537.25,251.45Z" style="fill:#ff9a6c"></path><path d="M525.88,248.17a34.12,34.12,0,0,1-4.7-2.45,33.65,33.65,0,0,1-4.49-2.8,34.37,34.37,0,0,1,4.69,2.45A35.06,35.06,0,0,1,525.88,248.17Z" style="fill:#ff9a6c"></path><path d="M519.83,248.39c-.05,0-.29-.19-.67-.56a9.85,9.85,0,0,0-1.53-1.3,4,4,0,0,0-1.83-.67c-.5,0-.82,0-.84,0s.28-.23.84-.26a3.62,3.62,0,0,1,2.05.61,6.56,6.56,0,0,1,1.53,1.46C519.7,248.06,519.87,248.35,519.83,248.39Z" style="fill:#ff9a6c"></path><path d="M528.67,246.63a11.07,11.07,0,0,0-2,2,10.79,10.79,0,0,0-1,2.63s-.11-.33,0-.87a4.79,4.79,0,0,1,.73-2,5,5,0,0,1,1.5-1.49C528.32,246.67,528.65,246.59,528.67,246.63Z" style="fill:#ff9a6c"></path><path d="M640.13,172.42a9.67,9.67,0,0,1-2-2.53,7.59,7.59,0,0,1,0-3.64,9.73,9.73,0,0,0-3.08-8.59c-2.45-2-6.43-2.18-8.68.05l-18.51,11.93a18.26,18.26,0,0,0-3.74,13.91,8.69,8.69,0,0,0,2.53,5.38c1.53,1.32,4.05,1.64,5.54.27A8.06,8.06,0,0,0,626.54,193a6.23,6.23,0,0,0,11-3.38c.13-1.44-.23-2.94.2-4.32.49-1.61,1.94-2.72,2.89-4.11A7.49,7.49,0,0,0,640.13,172.42Z" style="fill:#263238"></path><path d="M627.77,164a6,6,0,0,0-.27-7.82c1.19-1.37.86-3.54-.25-5a12.33,12.33,0,0,0-4.45-3.09,8.41,8.41,0,0,0-9.59-6.33c-2.06-3.2-6.68-3.85-10.44-2.92a10.16,10.16,0,0,1-2.78.5,18.3,18.3,0,0,1-2-.35c-3.76-.63-7.6,1.84-9.2,5.22a7,7,0,0,1-.86,1.57,9.24,9.24,0,0,1-1.92,1.39,5.87,5.87,0,0,0-2.47,4.28c-.11,1.43.3,3-.37,4.25a20.79,20.79,0,0,0-1.17,1.82c-.77,1.94,1.39,4,.9,6.06-.1.41-.31.79-.44,1.2a3.57,3.57,0,0,0,.14,2.55,5.27,5.27,0,0,1,.75,1.85,5.93,5.93,0,0,1-.36,1.48c-.3,1.21,2.23,6,3.29,6.71l32.26,1.39a6,6,0,0,0,4.85-4.91,2.15,2.15,0,0,1,.34-1.15,2.69,2.69,0,0,1,.9-.52c2.12-1,2.47-3.8,2.34-6.1a2.58,2.58,0,0,1,.05-1A3.61,3.61,0,0,1,627.77,164Z" style="fill:#263238"></path><path d="M617,198.41l-.09,0S617,198.36,617,198.41Z" style="fill:#ffbf9d"></path><path d="M585,160c.57-6.31,7.29-11.91,9.09-12.25a13.37,13.37,0,0,1,7.67-1.3,21.8,21.8,0,0,1,8.17,2.23,16.78,16.78,0,0,1,8.63,15l-1.66,34.63c-3.75,4.14-14.05,7.7-14.05,7.7s-6.56,1.48-8.43-1.13c0,0,.82-11.92.82-11.9s-9.18-1.57-10.63-12.15C583.85,175.64,584.33,167.05,585,160Z" style="fill:#ffbf9d"></path><path d="M587.77,168.38a1.36,1.36,0,0,0,1.3,1.39,1.32,1.32,0,0,0,1.46-1.18,1.36,1.36,0,0,0-1.3-1.39A1.31,1.31,0,0,0,587.77,168.38Z" style="fill:#263238"></path><path d="M587.34,164.15c.16.18,1.23-.56,2.72-.52s2.56.8,2.73.62-.09-.4-.55-.75a4,4,0,0,0-2.18-.71,3.72,3.72,0,0,0-2.18.63C587.42,163.75,587.25,164.06,587.34,164.15Z" style="fill:#263238"></path><path d="M595.76,175.83a10.11,10.11,0,0,0-2.41-.48c-.37,0-.73-.13-.79-.39a1.91,1.91,0,0,1,.28-1.09l1.2-2.8c1.66-4,2.87-7.27,2.71-7.33s-1.65,3.11-3.31,7.1c-.4,1-.79,1.92-1.15,2.82a2.07,2.07,0,0,0-.23,1.45.94.94,0,0,0,.61.56,2.71,2.71,0,0,0,.64.1A9.69,9.69,0,0,0,595.76,175.83Z" style="fill:#263238"></path><path d="M595.16,193a28.11,28.11,0,0,0,14.6-3.41s-3.68,7.47-14.46,6.23Z" style="fill:#ff9a6c"></path><path d="M588.46,158.36c.24.36,1.39.15,2.72.29s2.42.51,2.72.19c.14-.15,0-.5-.45-.87a4.36,4.36,0,0,0-4.39-.39C588.55,157.86,588.36,158.18,588.46,158.36Z" style="fill:#263238"></path><path d="M604.19,169.48a1.36,1.36,0,0,1-1.42,1.28,1.3,1.3,0,0,1-1.35-1.3,1.38,1.38,0,0,1,1.42-1.28A1.31,1.31,0,0,1,604.19,169.48Z" style="fill:#263238"></path><path d="M607.7,165.2c-.18.17-1.18-.65-2.67-.74s-2.62.58-2.77.39.12-.39.62-.7a3.81,3.81,0,0,1,2.23-.53,3.67,3.67,0,0,1,2.11.81C607.66,164.8,607.79,165.13,607.7,165.2Z" style="fill:#263238"></path><path d="M607.91,159.51c-.32.31-1.44-.1-2.82-.2s-2.56.06-2.81-.3c-.11-.17.1-.49.63-.77a4.38,4.38,0,0,1,2.33-.4,4.21,4.21,0,0,1,2.2.8C607.91,159,608.05,159.35,607.91,159.51Z" style="fill:#263238"></path><path d="M616.54,173.68c0-.79,1-2.62,1.79-2.72,2.13-.27,5.94,0,5.85,5.24-.13,7.18-7.5,5.57-7.5,5.37S616.46,176.38,616.54,173.68Z" style="fill:#ffbf9d"></path><path d="M618.75,179s.13.09.35.19a1.29,1.29,0,0,0,.95,0,3.08,3.08,0,0,0,1.52-2.76,4.14,4.14,0,0,0-.32-1.79,1.47,1.47,0,0,0-1-1,.64.64,0,0,0-.76.33c-.11.2-.06.34-.1.35s-.16-.12-.09-.41a.76.76,0,0,1,.3-.45,1,1,0,0,1,.71-.17,1.79,1.79,0,0,1,1.32,1.14,4.09,4.09,0,0,1,.4,2,3.25,3.25,0,0,1-1.92,3.07,1.43,1.43,0,0,1-1.17-.21C618.76,179.15,618.73,179,618.75,179Z" style="fill:#ff9a6c"></path><path d="M583.32,160.1a4.19,4.19,0,0,0,2.45-3.79c1,.31,2-.9,2.6-1.72s1.32-1.22,1.3-2.22a1.08,1.08,0,0,1,.09-.59c.15-.27.5-.35.81-.43a4.86,4.86,0,0,0,3.33-3.27,10.6,10.6,0,0,0,5,.94,4,4,0,0,0,6.75-.12,3.55,3.55,0,0,0,2.34,1.78,10.75,10.75,0,0,0,3.05.23,4.12,4.12,0,0,0,2.66,4.74,1,1,0,0,1,.68.41,1.06,1.06,0,0,1-.14.8,3.23,3.23,0,0,0,2.12,4.18,2.37,2.37,0,0,0,.13,3.79c.26.16.6.36.55.66a.56.56,0,0,1-.17.31,4.69,4.69,0,0,0-1.22,2.34,1.74,1.74,0,0,0,1.41,2,2.24,2.24,0,0,0-1,1.55c0,.62.6,1.27,1.2,1.06.26-.09,3.94-.7,4.11-.91,2.15-2.71-.39-5.82-.51-9.24a21.82,21.82,0,0,0-2.93-9.78,16.32,16.32,0,0,0-2.52-3.53,22.49,22.49,0,0,0-4-3,20.29,20.29,0,0,0-5.84-2.89c-3.94-1-8.11.29-11.85,1.87a17.31,17.31,0,0,0-4.06,2.2,15.35,15.35,0,0,0-3.48,4.21,18.84,18.84,0,0,0-2.85,7.29" style="fill:#263238"></path><path d="M582,157.56a2.65,2.65,0,0,1,.41-.76c.16-.24.39-.51.61-.86a3.31,3.31,0,0,0,.45-1.33,10.48,10.48,0,0,0,0-1.78,7.86,7.86,0,0,1,.12-2.13,6,6,0,0,1,1-2.24,5.76,5.76,0,0,1,.93-1,8.3,8.3,0,0,1,1.19-.81,4.8,4.8,0,0,0,1.14-.92,5.67,5.67,0,0,0,.73-1.33,9.43,9.43,0,0,1,1.87-2.73,9.61,9.61,0,0,1,2.9-2.07,9,9,0,0,1,1.79-.6,7.45,7.45,0,0,1,2.93-.06c.33.05.65.13,1,.2a5,5,0,0,0,2,0c.66-.11,1.32-.33,2-.47a12.23,12.23,0,0,1,2.1-.31,12.89,12.89,0,0,1,2.15,0,10.52,10.52,0,0,1,2.15.44,7.24,7.24,0,0,1,3.64,2.48l.26.36-.11-.05a8.43,8.43,0,0,1,6.3,1.42,8,8,0,0,1,3.42,5l-.06-.08a23,23,0,0,1,2.54,1.4,7.61,7.61,0,0,1,2.06,1.89,4.86,4.86,0,0,1,.89,2.51,3.33,3.33,0,0,1-.77,2.4v-.12a5.91,5.91,0,0,1,1.59,3.73,6,6,0,0,1-.86,3.55,6.3,6.3,0,0,1-.51.7,6.1,6.1,0,0,0-.53.63,1.52,1.52,0,0,0-.28.7,4.57,4.57,0,0,0,0,.74,11.4,11.4,0,0,1-.15,2.73,5.7,5.7,0,0,1-.78,2,3.7,3.7,0,0,1-1.18,1.14c-.38.23-.72.32-.91.44a3.09,3.09,0,0,0-.28.21,1.07,1.07,0,0,1,.26-.23c.19-.14.53-.23.9-.47a3.48,3.48,0,0,0,1.14-1.13,5.4,5.4,0,0,0,.74-2,11.2,11.2,0,0,0,.13-2.7,5,5,0,0,1,0-.77,1.67,1.67,0,0,1,.3-.76,6.42,6.42,0,0,1,.53-.64,6.94,6.94,0,0,0,.49-.68,5.92,5.92,0,0,0,.82-3.46,5.69,5.69,0,0,0-1.56-3.62l-.06-.06.06-.06a3.19,3.19,0,0,0,.72-2.28,4.62,4.62,0,0,0-.87-2.41,7.33,7.33,0,0,0-2-1.83,22.69,22.69,0,0,0-2.53-1.38l0,0v0a7.82,7.82,0,0,0-3.34-4.87,8.18,8.18,0,0,0-6.13-1.37h-.07l0-.06-.26-.35a6.93,6.93,0,0,0-3.53-2.4,10.9,10.9,0,0,0-2.1-.44,13.67,13.67,0,0,0-2.12,0,12.78,12.78,0,0,0-2.06.3c-.67.14-1.33.36-2,.47a5.11,5.11,0,0,1-1,.08,5.7,5.7,0,0,1-1-.14l-1-.2c-.32,0-.64-.09-1-.1a7.83,7.83,0,0,0-1.88.16,9,9,0,0,0-1.75.58,9.59,9.59,0,0,0-2.86,2,9.23,9.23,0,0,0-1.84,2.68,6.24,6.24,0,0,1-.76,1.36,4.57,4.57,0,0,1-1.19.94,9.24,9.24,0,0,0-1.17.8,5.94,5.94,0,0,0-.92,1,5.81,5.81,0,0,0-1,2.19,7.59,7.59,0,0,0-.13,2.1,9.51,9.51,0,0,1,0,1.79A3.22,3.22,0,0,1,583,156c-.23.35-.46.62-.63.85a4.56,4.56,0,0,0-.35.54Z" style="fill:#455a64"></path><path d="M609.8,140.13s-.19-.11-.54-.29a5.12,5.12,0,0,0-1.6-.5,4.69,4.69,0,0,0-2.42.28A4.8,4.8,0,0,0,603,141.5a4,4,0,0,0-.39.81.91.91,0,0,0,0,.76l.17.24-.3-.09a3.15,3.15,0,0,0-2.28.21,2.88,2.88,0,0,0-1.28,1.29,3,3,0,0,0-.32,1.18,4,4,0,0,1,0,.45s0,0,0-.12a1.37,1.37,0,0,1,0-.33,2.85,2.85,0,0,1,.27-1.23,3,3,0,0,1,1.32-1.4,3.26,3.26,0,0,1,2.44-.25l-.12.16a1.07,1.07,0,0,1-.07-.94,4.15,4.15,0,0,1,.41-.85,4.91,4.91,0,0,1,2.37-2,4.75,4.75,0,0,1,2.53-.24,4.83,4.83,0,0,1,1.61.57l.38.26Z" style="fill:#455a64"></path><path d="M625.21,155.46s0,0,0,.13a1.32,1.32,0,0,1-.17.34,2,2,0,0,1-1.21.74,3.81,3.81,0,0,1-2.1-.28,10.73,10.73,0,0,1-1.14-.48,2,2,0,0,1-1-.93l0-.12.17.06a8.51,8.51,0,0,1-2.21,1.22,3.89,3.89,0,0,1-2.08.15,2.8,2.8,0,0,1-1.25-.59,1.51,1.51,0,0,1-.26-.28c0-.07-.08-.1-.07-.11s.13.13.38.32a2.9,2.9,0,0,0,1.23.52,3.89,3.89,0,0,0,2-.2,8.75,8.75,0,0,0,2.15-1.2l.12-.09,0,.14,0,.1a1.74,1.74,0,0,0,.89.82,11.78,11.78,0,0,0,1.12.48,3.7,3.7,0,0,0,2,.32,1.94,1.94,0,0,0,1.17-.64A3.87,3.87,0,0,0,625.21,155.46Z" style="fill:#e0e0e0"></path><path d="M597.41,179.37a2.52,2.52,0,0,1,2.23-1,2.31,2.31,0,0,1,1.6.81,1.44,1.44,0,0,1,.16,1.66,1.7,1.7,0,0,1-1.81.51,5.25,5.25,0,0,1-1.81-1,1.42,1.42,0,0,1-.41-.4.45.45,0,0,1,0-.52" style="fill:#ff9a6c"></path><path d="M600.86,176.88c-.23,0-.19,1.5-1.45,2.61s-2.88,1-2.89,1.2.37.28,1.05.28a3.73,3.73,0,0,0,2.41-.91,3.27,3.27,0,0,0,1.12-2.19C601.14,177.23,601,176.86,600.86,176.88Z" style="fill:#263238"></path><path d="M609.16,450.83v1s-17,6.77-17.11,9.9l33.81-.48-.63-10.87A19.92,19.92,0,0,1,609.16,450.83Z" style="fill:#263238"></path><path d="M625.86,461.22l-.15-2.62L593.36,460s-1.49.66-1.31,1.68Z" style="fill:#455a64"></path><path d="M609.05,451.9c0,.16.83.22,1.65.72s1.26,1.17,1.41,1.1-.11-1-1.11-1.57S609,451.75,609.05,451.9Z" style="fill:#fff"></path><path d="M605.52,453.37c0,.15.68.41,1.26,1.08s.74,1.38.9,1.37.26-.91-.47-1.73S605.52,453.21,605.52,453.37Z" style="fill:#fff"></path><path d="M603.57,457.5c.15,0,.37-.77-.07-1.64s-1.21-1.2-1.28-1.07.42.59.76,1.31S603.41,457.48,603.57,457.5Z" style="fill:#fff"></path><path d="M636.9,452.78a30.22,30.22,0,0,0-.95-3.1l-.19-.48h0l-2.93-18-12.12,1.25L622.87,453l-.09-.08-.84,2.48-3.14,17.38a2.26,2.26,0,0,0,1.62,2.59,2.46,2.46,0,0,0,2.43-.67c3.17-3.45,14.79-16.18,14.51-17.73Z" style="fill:#263238"></path><path d="M620.85,475.4l16.38-19.92.08.91a2.44,2.44,0,0,1-.66,2.08c-1.29,2-4.94,6.56-13.74,16.18a2.38,2.38,0,0,1-2.06.75Z" style="fill:#455a64"></path><path d="M625.17,465.58a7,7,0,0,0-2.16-1.49,7.36,7.36,0,0,0-2.66-.24c0-.06.25-.25.77-.37a4,4,0,0,1,2.08.16,3.64,3.64,0,0,1,1.65,1.18C625.16,465.24,625.22,465.55,625.17,465.58Z" style="fill:#fff"></path><path d="M623.82,468.59a19,19,0,0,0-2.11-.74,20.71,20.71,0,0,0-2.24-.08,2.74,2.74,0,0,1,2.35-.39C623.19,467.63,623.93,468.52,623.82,468.59Z" style="fill:#fff"></path><path d="M627.84,461.63a23.49,23.49,0,0,0-3.16-1.35,25.83,25.83,0,0,0-3.45-.45,5.47,5.47,0,0,1,3.59,0A5.17,5.17,0,0,1,627.84,461.63Z" style="fill:#fff"></path><path d="M622.36,450.05a14.26,14.26,0,0,1,.17,2.68h0v0c-.18,1.16-.43,2.64-.72,4.24-.35,1.9-.68,3.62-.95,4.86a9.79,9.79,0,0,1-.51,2,9.6,9.6,0,0,1,.22-2c.18-1.26.47-3,.81-4.88.3-1.6.58-3.08.82-4.22v0A14.26,14.26,0,0,1,622.36,450.05Z" style="fill:#455a64"></path><path d="M642.84,321.47c4.25-19.86-8.84-40.16-8.84-40.16l-34.08,26.85s-7.22,80.35-3,90.77,24.72,52.94,24.72,52.94l15.69-3.68s-5.81-34.65-10.47-43.44c-3.35-6.33-8.84-9.34-6.28-17.59S639.36,337.71,642.84,321.47Z" style="fill:#263238"></path><path d="M572.46,290l0,0a177.78,177.78,0,0,1,8.23-21.85s10.65,8.42,20.36,10.36,31.36-7.09,31.36-7.09l3.85,13.83-31.12,20.5c1.16,2.32,3.78,9,2,19.07-2.19,12.76,2.19,48,8.58,70.62s6.81,56.09,6.81,56.09c-4.27,2.35-8.95,1.7-13.37-.72,0,0-3.15-8.4-7.4-22.45-5.83-19.25-6.5-25.54-6.93-31.62s-6.61-28.65-17.7-56.87C567,314,571.62,293.3,572.46,290Z" style="fill:#263238"></path><path d="M590.34,294.7l.18.22.49.66,1.9,2.61,7.11,9.9,0,0v.05c-.35,3.7-.48,8-.72,12.79s-.49,10.07-.77,15.73-.64,11.71-1,18.05-.73,13-1.38,19.79c-.68,5.67-1.29,11.25-.79,16.6a39.11,39.11,0,0,0,.56,3.95,25.52,25.52,0,0,0,1,3.78c.93,2.41,2,4.74,3,7,4.14,9.06,8,17.16,11.25,24l7.68,16.11,2.08,4.39.54,1.14c.11.26.16.4.16.4l-.2-.38-.58-1.13L618.75,446,610.94,430c-3.27-6.8-7.17-14.88-11.34-23.94-1-2.27-2.1-4.58-3.05-7a25,25,0,0,1-1-3.83,37.57,37.57,0,0,1-.57-4c-.51-5.41.09-11,.78-16.68.65-6.8,1-13.44,1.39-19.77s.69-12.39,1-18.05.58-10.93.83-15.72.41-9.09.79-12.8l0,.08-7-10L591,295.62l-.46-.68A1.14,1.14,0,0,1,590.34,294.7Z" style="fill:#455a64"></path><path d="M582.44,354a4.32,4.32,0,0,1-.33-.73l-.84-2.14c-.72-1.86-1.74-4.56-2.93-7.93s-2.56-7.39-3.88-11.93a118.51,118.51,0,0,1-3.47-15,66.76,66.76,0,0,1,1.53-27.73,48.49,48.49,0,0,1,2.92-7.95c.39-.92.8-1.58,1-2.05a5.7,5.7,0,0,1,.4-.69,4.43,4.43,0,0,1-.3.74c-.21.48-.58,1.16-1,2.09a54.81,54.81,0,0,0-2.74,8,68.39,68.39,0,0,0-1.36,27.55A122.58,122.58,0,0,0,575,331.11c1.29,4.53,2.61,8.57,3.75,11.95s2.09,6,2.77,8l.75,2.17A4.25,4.25,0,0,1,582.44,354Z" style="fill:#455a64"></path><path d="M579.79,207s-4.14,1.24-7.65,8.74c-2.79,6-4.11,39.78-4.11,39.78l-22.54-4.63L542,267.88s18.94,7.57,31,11.53c5.45,1.79,9.74-4.55,10.35-6.19,2-5.28-.61-43.84-.61-43.84Z" style="fill:#CFD8DC"></path><path d="M577.92,219.28,579.79,207c1.83-1.94,14.15-5.38,14.15-5.38,14.55,3.34,21.58-3.27,23.08-3.49,1-.15,12.15,3.37,12.15,3.37l5.6,32.73s-1.33,23.83-1.44,24,1.45,18.89,1.45,18.89-25.16,8.68-36.27,11.21-22.73-11.7-22.73-11.7c2.51-6.62,3.57-14.65,3.05-24.2Z" style="fill:#CFD8DC"></path><path d="M598.76,236c.1,0,.1,1.11.45,2.84a17.94,17.94,0,0,0,7.49,11.12c1.47,1,2.5,1.39,2.46,1.48s-.28,0-.75-.21a11.43,11.43,0,0,1-1.91-.95,15.61,15.61,0,0,1-2.54-1.9,18.27,18.27,0,0,1-2.54-3,18.07,18.07,0,0,1-1.78-3.46,15.73,15.73,0,0,1-.81-3.06,11.34,11.34,0,0,1-.15-2.13C598.69,236.24,598.72,236,598.76,236Z" style="fill:#263238"></path><path d="M575.6,230.66a43.93,43.93,0,0,0-.45,6.81,42,42,0,0,0,.87,7.35,85.55,85.55,0,0,0,2.36,8.78,12.56,12.56,0,0,1,.48,2.38c.11.79.19,1.57.24,2.33a27.26,27.26,0,0,1,0,4.43,32.38,32.38,0,0,1-1.66,7.29,48.56,48.56,0,0,0-1.27,4.84,15.53,15.53,0,0,1-.38,1.8,1.52,1.52,0,0,1,0-.47c0-.32.06-.78.16-1.36a38,38,0,0,1,1.12-4.91,34.63,34.63,0,0,0,1.53-7.23,26.38,26.38,0,0,0,0-4.35c-.06-.76-.13-1.52-.24-2.3a12.2,12.2,0,0,0-.47-2.3,83.47,83.47,0,0,1-2.34-8.84,40,40,0,0,1-.76-7.43c0-1.07.07-2,.11-2.87s.18-1.57.29-2.16.2-1,.28-1.34S575.58,230.65,575.6,230.66Z" style="fill:#263238"></path><path d="M629.17,201.54S640.29,202.75,644,217c2,7.55,10.14,56.63,9.47,60.85s-.78,32.45-.78,32.45L636,307.12l.22-36.73-8.5-38-4.84-20.67Z" style="fill:#CFD8DC"></path><path d="M625.17,224.31c.14,0,2.17,8.05,4.53,18s4.17,18.13,4,18.16-2.17-8-4.53-18S625,224.34,625.17,224.31Z" style="fill:#263238"></path><rect x="644.78" y="336.08" width="1" height="3.85" style="fill:#e0e0e0"></rect><polygon points="656.3 340.23 680.64 405.55 665.94 411.15 648.96 343.27 656.3 340.23" style="fill:#e0e0e0"></polygon><polygon points="665.94 411.15 633.26 399.65 631.48 342.39 648.96 343.27 665.94 411.15" style="fill:#e0e0e0"></polygon><path d="M665.94,411.15a19.4,19.4,0,0,1,.8-3.11c.56-1.9,1.37-4.53,2.31-7.46l.09-.3.29.13.6.26c3,1.27,5.63,2.46,7.55,3.34a21.39,21.39,0,0,1,3.06,1.54,20.69,20.69,0,0,1-3.22-1.17c-2-.79-4.65-1.92-7.61-3.19l-.61-.26.38-.18c-.94,2.93-1.82,5.54-2.47,7.41A17.78,17.78,0,0,1,665.94,411.15Z" style="fill:#263238"></path><path d="M652.75,341.68c.15,0,4,13.13,8.55,29.42s8.16,29.52,8,29.57-4-13.13-8.55-29.42S652.6,341.72,652.75,341.68Z" style="fill:#263238"></path><g style="opacity:0.30000000000000004"><polygon points="665.94 411.15 633.26 399.65 631.48 342.39 648.96 343.27 665.94 411.15"></polygon></g><polygon points="660.52 417.25 640.43 422.24 645.97 348.87 647.56 348.73 660.52 417.25" style="fill:#455a64"></polygon><polygon points="640.43 422.24 620.72 405.51 629.72 344.83 645.97 348.87 640.43 422.24" style="fill:#455a64"></polygon><g style="opacity:0.30000000000000004"><polygon points="640.43 422.24 620.72 405.51 629.72 344.83 645.97 348.87 640.43 422.24"></polygon></g><path d="M640.43,422.24a4.6,4.6,0,0,1,.61-.93c.42-.58,1-1.4,1.82-2.41,1.55-2,3.73-4.78,6.16-7.82l1.1-1.35.17-.22.21.17c2.8,2.07,5.26,3.92,7,5.28a23.73,23.73,0,0,1,2.75,2.26,26.68,26.68,0,0,1-3-2c-1.81-1.27-4.31-3.07-7.12-5.13l.39-.05-1.09,1.36c-2.44,3-4.66,5.76-6.3,7.71-.82,1-1.48,1.76-2,2.3S640.46,422.27,640.43,422.24Z" style="fill:#263238"></path><path d="M646.67,348.91c.15,0,1.1,13.64,2.11,30.48s1.71,30.5,1.56,30.51-1.11-13.63-2.12-30.48S646.51,348.92,646.67,348.91Z" style="fill:#263238"></path><polygon points="641.9 345.12 638.87 400.45 619.99 398.01 640.48 344.75 641.9 345.12" style="fill:#CFD8DC"></polygon><polygon points="619.99 398.01 606.74 387.2 627.54 340.31 640.48 344.75 619.99 398.01" style="fill:#CFD8DC"></polygon><g style="opacity:0.30000000000000004"><polygon points="619.99 398.01 606.74 387.2 627.54 340.31 640.48 344.75 619.99 398.01"></polygon></g><path d="M620,398a18.56,18.56,0,0,1,3-1.54c1.89-.89,4.52-2.07,7.44-3.35l.95-.41.18-.08.13.14c2.07,2.1,3.89,4,5.18,5.37a16.07,16.07,0,0,1,2,2.3,17.31,17.31,0,0,1-2.27-2c-1.36-1.31-3.22-3.15-5.3-5.25l.32.06-1,.42c-2.92,1.28-5.57,2.4-7.51,3.19A21,21,0,0,1,620,398Z" style="fill:#263238"></path><path d="M641.2,344.94c.16,0-1.89,10.81-4.57,24.07s-5,24-5.13,24,1.9-10.81,4.58-24.08S641.05,344.91,641.2,344.94Z" style="fill:#263238"></path><polygon points="656.3 340.23 636.05 339.59 636.6 342.65 648.96 343.27 656.3 340.23" style="fill:#263238"></polygon><polygon points="647.56 348.73 641.78 347.24 641.78 347.83 645.97 348.87 647.56 348.73" style="fill:#263238"></polygon><rect x="646.16" y="336.08" width="1" height="3.85" style="fill:#e0e0e0"></rect><path d="M641.2,310.25a6.5,6.5,0,0,1-1.77,3.93,15.68,15.68,0,0,0-2.4,5.4s-1.21,7.46-1.48,9.88-.25,4.62,1.65,4.14,2.46-2,2.7-6.38l1.07-2.36,1.07,1.77.35,6.68s-5.07,2.28-4.7,3.6S639,338,639,338l.81.73,7.64-2.58,2.49-9.44-1.11-12,.3-5-8.36-1.6Z" style="fill:#ffbf9d"></path><path d="M637.58,343.68l-1-.18c.07-.39,1.78-9.5,5.64-10.67l.29,1C639.81,334.61,638,341.21,637.58,343.68Z" style="fill:#e0e0e0"></path><path d="M635.61,343.12l-.92-.39c.15-.36,3.76-8.75,7.55-9.9l.29,1C639.75,334.63,636.59,340.81,635.61,343.12Z" style="fill:#e0e0e0"></path></g><g id="freepik--character-1--inject-6"><circle cx="165.84" cy="195.96" r="122.97" style="fill:#f5f5f5"></circle><path d="M288.81,196s0-.67-.08-2c0-.66,0-1.48-.07-2.46s-.05-2.11-.18-3.39-.21-2.72-.34-4.3-.41-3.3-.65-5.16a126.68,126.68,0,0,0-2.5-12.73,121.63,121.63,0,0,0-5-15.44,118.31,118.31,0,0,0-8.56-17.31,124.39,124.39,0,0,0-31.2-34.91,122.3,122.3,0,0,0-51.7-22.94,124.7,124.7,0,0,0-48.11.55A121.26,121.26,0,0,0,108,87.7a130.52,130.52,0,0,0-15.12,9.57A134.08,134.08,0,0,0,79,109.2a131.87,131.87,0,0,0-12.12,14.15,121,121,0,0,0-10,16.11c-.71,1.43-1.5,2.82-2.14,4.29l-2,4.39c-1.19,3-2.41,6-3.39,9.07a119.85,119.85,0,0,0-4.67,19,132.42,132.42,0,0,0-1.61,19.75,133.79,133.79,0,0,0,1.6,19.76,118.91,118.91,0,0,0,4.68,19c1,3.09,2.2,6.08,3.38,9.07l2,4.39c.64,1.47,1.44,2.86,2.14,4.29a120.42,120.42,0,0,0,10,16.12A132,132,0,0,0,79,282.71a135.14,135.14,0,0,0,13.85,11.93A130.24,130.24,0,0,0,108,304.22a128.66,128.66,0,0,0,16,7.14A130.49,130.49,0,0,0,140.39,316a124.78,124.78,0,0,0,48.12.55,122.66,122.66,0,0,0,51.69-22.94,124.28,124.28,0,0,0,31.21-34.91A119.73,119.73,0,0,0,280,241.43,123.93,123.93,0,0,0,285,226c1.16-4.74,2-9,2.5-12.73.23-1.87.48-3.58.64-5.16s.24-3,.34-4.3.15-2.41.18-3.39,0-1.79.07-2.46c0-1.31.08-2,.08-2s0,.68,0,2c0,.67,0,1.49,0,2.46s0,2.11-.15,3.4-.2,2.72-.32,4.3-.4,3.3-.62,5.17A128.84,128.84,0,0,1,285.19,226a122.13,122.13,0,0,1-5,15.48,119.5,119.5,0,0,1-8.53,17.37,124.45,124.45,0,0,1-31.23,35.05A122.86,122.86,0,0,1,188.58,317a125,125,0,0,1-48.28-.52,121.78,121.78,0,0,1-32.52-11.85A129.52,129.52,0,0,1,92.59,295a133.91,133.91,0,0,1-13.91-12A132.08,132.08,0,0,1,66.5,268.86a121.39,121.39,0,0,1-10.06-16.18c-.7-1.43-1.51-2.83-2.14-4.31s-1.33-2.93-2-4.4c-1.18-3-2.41-6-3.4-9.11a120.27,120.27,0,0,1-4.69-19.08,122.61,122.61,0,0,1,0-39.67A119.89,119.89,0,0,1,48.91,157c1-3.1,2.21-6.1,3.4-9.1l2-4.41c.63-1.48,1.43-2.87,2.14-4.31a120.9,120.9,0,0,1,10.06-16.17,133,133,0,0,1,12.17-14.2,136.3,136.3,0,0,1,13.91-12,123.69,123.69,0,0,1,31.23-16.76,130.59,130.59,0,0,1,16.48-4.69,125,125,0,0,1,48.28-.52A123,123,0,0,1,240.42,98,124.46,124.46,0,0,1,271.65,133a117.61,117.61,0,0,1,8.54,17.37,122.13,122.13,0,0,1,5,15.48,128.84,128.84,0,0,1,2.46,12.76c.22,1.87.47,3.59.62,5.17s.22,3,.32,4.3.13,2.42.15,3.4,0,1.79,0,2.46C288.81,195.29,288.81,196,288.81,196Z" style="fill:#263238"></path><path d="M128.44,313.28s18.82,6.29,39.49,5.64c23-.73,38-6.67,38-6.67l-8.39-31.45L171,288.86l-32.7-4.71Z" style="fill:#263238"></path><path d="M183.16,177.87l-4-10-23.61-1.25L146,167.85l-1.06,2.78-6.55,115.78s22.87,4.62,34.3,3,24.88-6.82,24.88-6.82V216.76Z" style="fill:#f5f5f5"></path><path d="M147.62,182.57a1.07,1.07,0,0,0,.17.21l.51.57c.46.5,1.13,1.21,2,2.09a83.21,83.21,0,0,0,7.73,6.77l.11.08.1-.1a87.87,87.87,0,0,0,7.08-8.87l.7-1h-.28l5.67,7.64a4,4,0,0,0,.79.8,1.5,1.5,0,0,0,1.09.3,1.73,1.73,0,0,0,.95-.54,8.78,8.78,0,0,0,.65-.76l2.24-2.81,3.22-4.06.86-1.11c.19-.26.28-.4.28-.4a2,2,0,0,0-.34.35l-.91,1.08-3.29,4-2.28,2.78c-.4.48-.81,1.08-1.42,1.18s-1.17-.44-1.59-1c-1.73-2.35-3.64-4.93-5.64-7.66l-.15-.19-.14.2c-.22.32-.46.66-.69,1a91.45,91.45,0,0,1-7,8.86l.21,0a91.42,91.42,0,0,1-7.78-6.65c-.91-.86-1.6-1.55-2.08-2l-.55-.54C147.7,182.62,147.63,182.56,147.62,182.57Z" style="fill:#263238"></path><g style="opacity:0.30000000000000004"><path d="M174.6,189.91s-3,3.69-3.84,2.76-5.27-7.79-5.8-8.07-5.89,9.34-8,8.66-9.6-8.16-9.6-8.16l-.14-3,10.92,9.94,7.76-9.87,6.52,8.49S173.8,191.78,174.6,189.91Z"></path></g><path d="M169.58,290.12a6.34,6.34,0,0,0,0-1.08c0-.77-.06-1.81-.1-3.11-.11-2.77-.27-6.65-.46-11.43-.41-9.65-.95-23-1.46-37.71s-.89-28.07-1.15-37.73c-.14-4.78-.25-8.67-.33-11.43,0-1.31-.08-2.34-.11-3.11a5.24,5.24,0,0,0-.09-1.09,6.58,6.58,0,0,0,0,1.09c0,.77,0,1.81,0,3.11,0,2.77.06,6.66.11,11.44.14,9.66.45,23,1,37.74s1.13,28.06,1.66,37.71c.28,4.77.51,8.66.67,11.42.1,1.3.17,2.34.23,3.1A7.47,7.47,0,0,0,169.58,290.12Z" style="fill:#263238"></path><g style="opacity:0.30000000000000004"><path d="M190.37,243.39c-1.9,28.47-2.17,43.69,2.55,71.83,2.12-.4,5-1.17,8.11-2C196.9,286.06,194.51,270.52,190.37,243.39Z"></path></g><path d="M207.6,270.18s.19-3.41.25-4.33l.7-13.89,1.69-29.05,7.72-33.1c-1.41-4.53-5.13-9.39-9.42-10.88-.34-.12-.68-.21-1-.3l-9.44-2.37-7.31-1.43-11.4-6.77s10.47,63.38,11.14,79.68,7,67.34,7,67.34a100.34,100.34,0,0,0,26.4-10.61Z" style="fill:#CFD8DC"></path><path d="M191.26,239.66s0,0,.06-.17.08-.31.13-.52c.11-.48.27-1.16.46-2,.37-1.75.88-4.29,1.36-7.45s.95-6.95,1.32-11.16.66-8.85.89-13.73c.08-1.82.16-3.61.24-5.35,0-.87.07-1.73.11-2.58l.06-1.27,0-.63v-.32c0-.05,0-.11,0-.17s0-.06,0-.12l0-.06c0-.05-.16-.08-.19-.05s-.09.07-.12.1l.24,0L192,191.5l0,.27,4.07-1.9.11-.05,0-.12c-.61-2.32-1.35-4.37-2-6.19s-1.25-3.39-1.75-4.68-.9-2.29-1.18-3l-.33-.77a1.19,1.19,0,0,0-.13-.26,1.2,1.2,0,0,0,.08.28c.08.2.17.46.29.79.27.71.64,1.72,1.12,3s1.05,2.88,1.68,4.7,1.34,3.88,1.93,6.18l.08-.17-4.09,1.89-.24.11.22.16,3.74,2.63.24,0s-.12-.09-.11-.09,0,0,0,0a.08.08,0,0,1-.07,0l-.05,0h0v.47l0,.62c0,.41,0,.84-.07,1.26,0,.85-.07,1.71-.11,2.58-.08,1.75-.17,3.54-.25,5.36-.23,4.87-.51,9.5-.86,13.71s-.8,8-1.24,11.15-.93,5.71-1.25,7.47c-.17.85-.3,1.53-.4,2,0,.22-.07.39-.09.53Z" style="fill:#263238"></path><path d="M147.14,180.72,146,166.58c-3.13,2.81-9,8.21-9,8.21L111.94,184l8.92,90.11-12.94,30.38c7.72,3.86,19.22,8.84,27.46,10.84,3.91-18.94,4.47-18.5,9.81-47.63S147.14,180.72,147.14,180.72Z" style="fill:#CFD8DC"></path><g style="opacity:0.30000000000000004"><path d="M177.61,283.71s1.71,2.23-2.06,2.91-46.45-2.47-46.45-2.47l-15.7,7.44,2-5.62,11.1-9.53Z"></path></g><path d="M111.94,184s-7.6,3.74-8.74,14.36c-1,9.34-2.65,66.7-2.45,71.33s4.2,17.7,11.37,18.15c11.3.72,14.42-8,14.42-8l-3-29.29Z" style="fill:#CFD8DC"></path><path d="M140.71,236.57s0-.06,0-.18-.05-.29-.09-.49c-.09-.47-.22-1.11-.38-1.92-.3-1.66-.76-4.07-1.19-7.07-.89-6-1.65-14.32-2.09-23.55q-.16-3.27-.3-6.36c0-1-.1-2-.14-3,0-.49-.05-1-.08-1.47l0-.72v-.35c0-.05,0-.11,0-.16a.22.22,0,0,1,0-.06v0s0,0,0,0a.2.2,0,0,1-.11,0s-.1,0-.09,0h0l.24,0,3.73-2.63.21-.15-.23-.11L136,186.52l.08.15a49.89,49.89,0,0,0,.83-5c.19-1.47.37-2.74.57-3.76s.42-1.82.58-2.34c.08-.25.15-.45.2-.6s.06-.21.05-.21l-.09.19c-.05.14-.14.33-.23.59a17.86,17.86,0,0,0-.65,2.34c-.23,1-.43,2.29-.64,3.76s-.44,3.14-.88,4.94l0,.1.1,0,4.07,1.91,0-.26L136.22,191l.23.05,0-.05a.18.18,0,0,0-.25,0,.14.14,0,0,0,0,0,.15.15,0,0,0,0,.06,1,1,0,0,0,0,.12,1.28,1.28,0,0,0,0,.19v.37c0,.24,0,.48,0,.73,0,.48,0,1,.08,1.47q.06,1.48.12,3c.1,2,.2,4.18.3,6.35a225.92,225.92,0,0,0,2.2,23.58c.46,3,1,5.4,1.3,7.06.19.8.34,1.44.44,1.9l.13.49Z" style="fill:#263238"></path><path d="M126.32,212.73l53.73,2.74a2.47,2.47,0,0,1,2.35,2.33L186,281.54a2.47,2.47,0,0,1-2.6,2.61l-52.13-2.73a2.47,2.47,0,0,1-2.34-2.27l-5.16-63.75A2.47,2.47,0,0,1,126.32,212.73Z" style="fill:#263238"></path><path d="M115,198.76a4,4,0,0,0,.09.57c.08.4.18.95.31,1.63.29,1.44.69,3.48,1.18,6,1,5.05,2.26,12,3.49,19.79s2.16,14.8,2.78,19.91c.31,2.53.55,4.59.73,6.05.08.69.15,1.23.2,1.64a2.35,2.35,0,0,0,.1.57,4.2,4.2,0,0,0,0-.58c0-.4-.08-.95-.14-1.65-.12-1.43-.33-3.5-.61-6.06-.56-5.12-1.46-12.17-2.69-19.94s-2.55-14.74-3.59-19.78c-.52-2.52-1-4.56-1.29-6-.15-.68-.28-1.22-.37-1.61A3.5,3.5,0,0,0,115,198.76Z" style="fill:#263238"></path><path d="M125.22,254.47s-3.09.17-5.83,4.76l-5.24,3.33s-4.58,7.2,0,13.92,10.12,1,10.12,1,5.53,2.74,7.08,2.26,12-6.12,13.57-7.41c.45-.39,3.83-4.26,3.83-4.26s4.68-1,5.21-2.08.58-3.53-2.58-3.29c0,0,3.07-.93,3.43-2.47s0-3.57-5.44-2.8-15.86,3.68-17.07,3.38a.76.76,0,0,1,.12-1.37c.39-.18,12.66-4.95,14.64-5.49,2.13-.59,2.44-5.34-2-4.21s-18.75,4.59-18.75,4.59Z" style="fill:#ffbf9d"></path><path d="M133.31,272.69a18.91,18.91,0,0,0,2.28-.69c1.39-.46,3.32-1.07,5.47-1.7s4.1-1.14,5.52-1.51a17.22,17.22,0,0,0,2.29-.64,2.92,2.92,0,0,0-.63.07c-.41.07-1,.18-1.71.34-1.44.3-3.41.78-5.57,1.41s-4.08,1.28-5.45,1.8c-.69.26-1.24.47-1.62.64A2.77,2.77,0,0,0,133.31,272.69Z" style="fill:#ff9a6c"></path><path d="M131.55,267a4.08,4.08,0,0,0,.81-.06c.51-.05,1.25-.15,2.17-.29,1.83-.27,4.35-.71,7.11-1.3s5.24-1.22,7-1.73c.89-.25,1.61-.46,2.1-.62a3.72,3.72,0,0,0,.76-.28,3.64,3.64,0,0,0-.79.15l-2.13.52c-1.79.44-4.28,1-7,1.62s-5.27,1.07-7.08,1.4l-2.16.4A3.34,3.34,0,0,0,131.55,267Z" style="fill:#ff9a6c"></path><path d="M116.66,265.77s0,.2,0,.56a8.12,8.12,0,0,0,.2,1.52,13.59,13.59,0,0,0,5.47,8.3,10,10,0,0,0,1.31.79,2,2,0,0,0,.53.21c0-.06-.68-.43-1.7-1.2a14.89,14.89,0,0,1-5.37-8.15C116.78,266.56,116.72,265.76,116.66,265.77Z" style="fill:#ff9a6c"></path><path d="M114.92,278.24s-.67-.74-1.48-2.11a12.08,12.08,0,0,1-.37-11.82c.73-1.41,1.4-2.15,1.35-2.2a2.38,2.38,0,0,0-.49.51,10.48,10.48,0,0,0-1.08,1.57,11.69,11.69,0,0,0,.38,12.07,10.14,10.14,0,0,0,1.17,1.51A2.15,2.15,0,0,0,114.92,278.24Z" style="fill:#263238"></path><path d="M102.82,255.36c0,.06.87-.59,2.39-1.32A17.24,17.24,0,0,1,108,253a19.65,19.65,0,0,1,3.56-.63,18.42,18.42,0,0,1,3.6.1,17.19,17.19,0,0,1,2.89.63c1.6.51,2.53,1,2.56,1a3.27,3.27,0,0,0-.64-.39,5.71,5.71,0,0,0-.78-.38,9.58,9.58,0,0,0-1.07-.42,15.45,15.45,0,0,0-2.91-.72,16.9,16.9,0,0,0-7.3.54,15.64,15.64,0,0,0-2.77,1.15,8.86,8.86,0,0,0-1,.58,5.36,5.36,0,0,0-.71.49A3,3,0,0,0,102.82,255.36Z" style="fill:#263238"></path><g style="opacity:0.30000000000000004"><path d="M137.94,176s-4.53,10.56-3.9,11.44,3,1.51,3,1.51-3.9,1.68-3.9,3.18c0,3,4.18,20.64,4.18,20.64l-1-21.56,3.74-2.62-4.07-1.9Z"></path></g><path d="M247.92,229.88s6.44-8.4,8-11.35a16.86,16.86,0,0,1,5.16-6.1c2.5-2,9.39-6.88,11.88-6.58s12.33-.86,12.33-.86l-7.42,11.65s2.24,8.13.5,10-1.5,1.4-4,2.21-11.84,1.35-12,1.62S257,239,257,239Z" style="fill:#ffbf9d"></path><path d="M279.58,211l25.18-13.95.75-1.5a.38.38,0,0,0-.32-.55l-1.62-.09-25.17,14Z" style="fill:#263238"></path><path d="M291.39,202.55s-2-.77-3.57,1.93a50.29,50.29,0,0,0-2.49,4.77,18.18,18.18,0,0,1-1.85.4L281,213.1l.74,2.18s5.05-.92,6-2.39a54.19,54.19,0,0,0,3.93-9C291.84,202.78,291.39,202.55,291.39,202.55Z" style="fill:#ffbf9d"></path><path d="M274.63,222.62l1-1.84-1.75-1.84s-3.5,1.37-4.85-.23-1-1.75-1-1.75l4.61-1.62-2.85-.55s-3.79,1.53-4.65-.7l.14-1.35a36.14,36.14,0,0,1,5.24-1.32,66.1,66.1,0,0,1,7,.36h0l-4.86-1.26a7.82,7.82,0,0,1-3.09-.1,1.41,1.41,0,0,1-.82-2h0a1.42,1.42,0,0,1,.66-.62,12.64,12.64,0,0,1,3.8-1.15c1.7-.11,7.41.62,8.87,1.84s1.68,1.81,1.27,3.32a22.06,22.06,0,0,1-2,4.12,6.83,6.83,0,0,1-.78,3.29s1,3.38-2.14,7.39" style="fill:#ffbf9d"></path><path d="M278.4,226.59a2.56,2.56,0,0,0,.35-.41,9.49,9.49,0,0,0,.87-1.3,9.73,9.73,0,0,0,.95-2.32,7.46,7.46,0,0,0,.13-3.4l0,.14a6.51,6.51,0,0,0,.84-3.39l0,.11c.47-.77.94-1.58,1.38-2.46a6.81,6.81,0,0,0,.89-3A2.39,2.39,0,0,0,283,209a5.26,5.26,0,0,0-1.36-1.09,13.8,13.8,0,0,0-3.38-1,32.6,32.6,0,0,0-3.66-.5,9.13,9.13,0,0,0-1.95,0,11.22,11.22,0,0,0-1.91.52q-.48.16-.93.36a3.33,3.33,0,0,0-1,.51,1.72,1.72,0,0,0-.3,2.19,1.67,1.67,0,0,0,.95.72,5.56,5.56,0,0,0,1.07.18,9,9,0,0,0,2.13-.08h-.12l2,.52,2.87.74.1-.57c-2.17-.19-4.29-.38-6.39-.38a13.14,13.14,0,0,0-3.07.53c-1,.26-1.92.54-2.85.85l-.16,0,0,.18c-.05.45-.09.9-.14,1.35v.06l0,.06a2.05,2.05,0,0,0,1,1.1,3.13,3.13,0,0,0,1.39.27,7.56,7.56,0,0,0,2.57-.54l-.14,0,2.86.53,0-.45-3.44,1.23-.8.29-.2.07-.09,0-.05,0h0a.32.32,0,0,0-.1.07c-.17.35,0,.45,0,.6a6.43,6.43,0,0,0,.94,1.33,2.37,2.37,0,0,0,1.35.78,4.76,4.76,0,0,0,1.4.06,9,9,0,0,0,2.34-.56l-.14,0,1.77,1.81v-.11l-.72,1.42a2.82,2.82,0,0,0-.21.47s.11-.13.29-.43l.8-1.37,0-.06-.05,0L274,218.84l-.06-.06-.09,0a9.06,9.06,0,0,1-2.27.49,2.79,2.79,0,0,1-2.43-.76,6.31,6.31,0,0,1-.86-1.25,1.31,1.31,0,0,1,0-.15c0-.06,0,0-.12-.1v0h0c-.08-.12.1.15.08.13h0l0,0,.1,0,.2-.07.8-.28,3.45-1.19.82-.28-.86-.17-2.85-.56h-.06l-.08,0a7,7,0,0,1-2.38.48,1.87,1.87,0,0,1-1.92-1v.12q.07-.66.15-1.35l-.19.23c.92-.29,1.86-.57,2.82-.82a12.74,12.74,0,0,1,2.94-.5c2,0,4.17.2,6.33.39l.1-.57-2.88-.75-2-.51-.06,0h-.06a8.3,8.3,0,0,1-2,.08,4.39,4.39,0,0,1-.95-.16,1,1,0,0,1-.62-.47,1.14,1.14,0,0,1,.2-1.46,3,3,0,0,1,.79-.41l.9-.35a11.88,11.88,0,0,1,1.81-.5,8.5,8.5,0,0,1,1.82,0,31.57,31.57,0,0,1,3.6.47,13.52,13.52,0,0,1,3.25,1,4.75,4.75,0,0,1,1.23,1,2,2,0,0,1,.64,1.26,6.58,6.58,0,0,1-.82,2.78c-.42.87-.87,1.68-1.32,2.44l0,.05v.06a6.35,6.35,0,0,1-.72,3.19l0,.06v.08a7.3,7.3,0,0,1-.06,3.24,9.94,9.94,0,0,1-.86,2.31C278.83,226,278.35,226.56,278.4,226.59Z" style="fill:#ff9a6c"></path><path d="M273.3,223.52a5.59,5.59,0,0,0-1.73-1.2,17.61,17.61,0,0,0-4.78-1.74,18,18,0,0,0-5.08-.31,6.16,6.16,0,0,0-2.07.42c0,.19,3.21-.35,7,.46S273.21,223.69,273.3,223.52Z" style="fill:#ff9a6c"></path><path d="M272.28,215.35c0,.1.57-.1,1.44-.18a5.11,5.11,0,0,1,3.19.87,16.68,16.68,0,0,1,2.62,2.27c.63.65,1.05,1,1.11,1s-.24-.53-.8-1.25a11.11,11.11,0,0,0-2.62-2.49,4.92,4.92,0,0,0-3.56-.79C272.73,215,272.25,215.3,272.28,215.35Z" style="fill:#ff9a6c"></path><path d="M277.3,211.74a11.16,11.16,0,0,1,2.34,1.6c1.11,1.12,1.65,2.33,1.81,2.26a4.05,4.05,0,0,0-1.39-2.67,4.27,4.27,0,0,0-1.85-1.15C277.67,211.62,277.31,211.67,277.3,211.74Z" style="fill:#ff9a6c"></path><path d="M213.34,182.14l4.62,7.67,16.18,46.12,15.15-15.65L265,235.93s-19.13,25.72-22.42,29.84c-5.26,6.58-19.92,6.15-25.2-5.55-4.53-10-8-16.83-8-16.83l.87-19.45Z" style="fill:#CFD8DC"></path><path d="M211.51,200.13a1.16,1.16,0,0,1,0,.28l0,.82c0,.75-.08,1.81-.13,3.14-.13,2.78-.33,6.72-.56,11.58-.53,9.8-1.25,23.28-2.05,38.17-.32,5.64-.63,11.07-.91,16.07l0-.12,11.63,24.65,3.32,7.15.87,1.92a3.73,3.73,0,0,1,.27.68s-.13-.22-.35-.64l-.94-1.89-3.45-7.08c-2.94-6.11-7-14.66-11.8-24.58l0,0v-.07c.28-5,.58-10.43.89-16.07.86-14.88,1.63-28.36,2.2-38.16.31-4.86.55-8.8.73-11.57.09-1.33.17-2.38.22-3.14,0-.33.06-.6.07-.82A.84.84,0,0,1,211.51,200.13Z" style="fill:#263238"></path><path d="M232.08,251a8.68,8.68,0,0,1-.05-2.23c.05-1.37.2-3.27.48-5.35s.65-3.95,1-5.29a8.28,8.28,0,0,1,.65-2.13c.15,0-.54,3.35-1.1,7.49S232.23,251,232.08,251Z" style="fill:#263238"></path><path d="M193.36,111.3s6.18,23.09,6.71,39.43l.18,5.44s-13.63,11.31-25.06,12l-9.58-23.56Z" style="fill:#263238"></path><path d="M132.84,125.46c2.6-11.26,3.61-24.36,13-31.71,6.95-5.45,14.87-7,23.69-6.6,4.34.19,9.25,2.19,13,4.33,5.19,2.94,7.39,8.9,9.89,14.31,5,10.84,4.38,25.51,1,29.59L148.11,159.3c-9.05-4.7-14.71-6.58-16.16-18.63A44.22,44.22,0,0,1,132.84,125.46Z" style="fill:#263238"></path><path d="M146.29,102.7l28.51-8.41c9.18-1.34,15.76,9.78,16.71,19,1.05,10.25,1.93,22.82,1,30.54-1.84,15.52-13.59,17.95-13.59,17.95S179,168,179,168l-13,13.79-19.84-13.26-4.54-60.15A5.44,5.44,0,0,1,146.29,102.7Z" style="fill:#ffbf9d"></path><path d="M188.81,129.24a2,2,0,0,1-1.82,2.07,1.89,1.89,0,0,1-2.11-1.7,2,2,0,0,1,1.82-2.07A1.88,1.88,0,0,1,188.81,129.24Z" style="fill:#263238"></path><path d="M189.62,122.6c-.23.27-1.78-.78-3.91-.69s-3.64,1.21-3.88,1,.11-.59.77-1.11a5.44,5.44,0,0,1,3.1-1.09,5.27,5.27,0,0,1,3.12.87C189.5,122,189.74,122.48,189.62,122.6Z" style="fill:#263238"></path><path d="M170.55,129.24a2,2,0,0,1-1.83,2.07,1.89,1.89,0,0,1-2.11-1.7,2,2,0,0,1,1.83-2.07A1.89,1.89,0,0,1,170.55,129.24Z" style="fill:#263238"></path><path d="M168.68,122.85c-.24.27-1.78-.78-3.91-.69s-3.65,1.21-3.89,1,.12-.59.78-1.11a5.44,5.44,0,0,1,3.1-1.09,5.29,5.29,0,0,1,3.12.87C168.55,122.27,168.79,122.73,168.68,122.85Z" style="fill:#263238"></path><path d="M177,136.65a14.3,14.3,0,0,1,3.43-.76c.55-.08,1.06-.2,1.13-.58a2.66,2.66,0,0,0-.42-1.59q-.86-2-1.77-4.08c-2.47-5.81-4.27-10.59-4-10.69s2.42,4.53,4.89,10.34l1.7,4.1a3.18,3.18,0,0,1,.37,2.12,1.37,1.37,0,0,1-.87.84,3.8,3.8,0,0,1-.91.16A13.9,13.9,0,0,1,177,136.65Z" style="fill:#263238"></path><path d="M179,161.79a39.35,39.35,0,0,1-20.88-4.7s5.53,10.59,20.91,8.54Z" style="fill:#ff9a6c"></path><path d="M170.07,141.38a3.11,3.11,0,0,1,2.51-1.5,4,4,0,0,1,3.73,1.67,2.53,2.53,0,0,1,.23,1.8c-.12.31,0,.15-.25.37a7,7,0,0,1-2.8,1.9,3,3,0,0,1-3.23-1.05A3.07,3.07,0,0,1,170.07,141.38Z" style="fill:#ff9a6c"></path><path d="M170.38,138.46c.35,0,.46,2.28,2.51,3.83s4.5,1.18,4.53,1.51c0,.14-.53.47-1.57.54a5.66,5.66,0,0,1-3.77-1.12,5,5,0,0,1-2-3.22C170,139,170.22,138.46,170.38,138.46Z" style="fill:#263238"></path><path d="M169.48,115.06c-.15.59-2.29.53-4.75,1.07s-4.41,1.41-4.79.93c-.17-.23.13-.81.89-1.45a8.44,8.44,0,0,1,7.26-1.52C169,114.37,169.55,114.77,169.48,115.06Z" style="fill:#263238"></path><path d="M189.44,116.87c-.48.42-2-.31-4-.62s-3.65-.2-4-.76c-.13-.26.2-.7,1-1a6.07,6.07,0,0,1,3.36-.32,6,6,0,0,1,3,1.42C189.51,116.13,189.66,116.66,189.44,116.87Z" style="fill:#263238"></path><path d="M174.9,92.63c0,.11,0,.22.07.33l-.05,0C174.91,92.87,174.9,92.75,174.9,92.63Z" style="fill:#263238"></path><path d="M152.37,167.29a2.59,2.59,0,0,0,3.24-2,32.07,32.07,0,0,0,.08-9.38c-.5-4.29-3.41-8.77-3.77-13.07-.69-8.2,0-12.8,1-19.68a16.36,16.36,0,0,0,10-5.8c3.09-3.6,5-8.07,6.79-12.46a20.89,20.89,0,0,1-4.2,12,5.64,5.64,0,0,0,4.81-1.56,12.54,12.54,0,0,0,2.82-4.39,34,34,0,0,0,2.73-12.34,44.38,44.38,0,0,1-2,18,7.77,7.77,0,0,1,3.35.13,3.67,3.67,0,0,0,3.19-.68,4,4,0,0,0,.88-2,46.32,46.32,0,0,0,.51-15.71,47.83,47.83,0,0,1,3.54,8.7,16.86,16.86,0,0,1,.06,9.29,1.38,1.38,0,0,0,1.92,0,3.24,3.24,0,0,0,.84-1.94,23.74,23.74,0,0,0-.51-7.82c1.54,2.74,2.06,5.91,2.91,8.93s2.21,6.12,4.84,7.84a41.29,41.29,0,0,0-.39-11.84,35.67,35.67,0,0,0-3.47-9.39,27.91,27.91,0,0,0-6.26-8.71c-4.54-4-6.44-2.27-9.34-.75l-.35.14c0-.07,0-.14,0-.21l-.13-.62A43.6,43.6,0,0,0,152.47,93c-5.47,1.79-6,13.57-7.3,8-.81-3.39-5.2-.29-5.26-.2-6.45,11.65-13.29,30.11-13.61,59.29h0Z" style="fill:#263238"></path><path d="M151.87,138.9A16.84,16.84,0,0,0,166,147.45a.63.63,0,0,0,0-1.25A15.58,15.58,0,0,1,153,138.27c-.39-.71-1.47-.08-1.08.63Z" style="fill:#e0e0e0"></path><path d="M167.69,149.83l-2.76-.43a2.46,2.46,0,0,1-2.05-2.82h0a2.47,2.47,0,0,1,2.82-2.06l2.75.43a2.48,2.48,0,0,1,2.06,2.82h0A2.48,2.48,0,0,1,167.69,149.83Z" style="fill:#CFD8DC"></path><circle cx="146.22" cy="134.71" r="11.34" style="fill:#CFD8DC"></circle><path d="M143.07,125s-2-27.06,16.83-37.34L165,87.1S145.55,98,149.62,127.53Z" style="fill:#CFD8DC"></path></g><g id="freepik--speech-bubble-1--inject-6"><path d="M236.86,143.44l8.13-4.07a34.68,34.68,0,1,0-11.32-5.12h0Z" style="fill:#fff"></path><path d="M236.86,143.44a4.37,4.37,0,0,1-.22-.56c-.16-.42-.38-1-.65-1.73l-2.49-6.85a.16.16,0,0,1,.1-.21.14.14,0,0,1,.11,0h0l-.15.29a34.54,34.54,0,0,1-11.18-12.5,35.73,35.73,0,0,1-3.53-10.51,34.89,34.89,0,0,1,.24-12.61A35.67,35.67,0,0,1,224.59,86a34.21,34.21,0,0,1,11-10.33,35.92,35.92,0,0,1,15.31-4.78,35.15,35.15,0,0,1,30,13.27,35.71,35.71,0,0,1,6.79,14.7,34.12,34.12,0,0,1-.37,15.21,35.68,35.68,0,0,1-6,12.7,35.09,35.09,0,0,1-9.33,8.6l-2.57,1.45c-.85.45-1.74.79-2.59,1.18a32,32,0,0,1-5.1,1.68,34.56,34.56,0,0,1-16.71-.11l.11,0-6.12,3-1.57.75a2.64,2.64,0,0,1-.52.22l.55-.3,1.57-.83,5.94-3.09a.22.22,0,0,1,.11,0,34.5,34.5,0,0,0,16.51-.08,30.85,30.85,0,0,0,5-1.7c.83-.39,1.71-.72,2.54-1.17l2.52-1.44a34.41,34.41,0,0,0,14.93-21A33.36,33.36,0,0,0,286.86,99a34.77,34.77,0,0,0-6.66-14.36,34.33,34.33,0,0,0-29.28-13,35,35,0,0,0-15,4.65A33.36,33.36,0,0,0,225.2,86.38a34.83,34.83,0,0,0-5.42,12.53,34.31,34.31,0,0,0-.31,12.37,35.61,35.61,0,0,0,3.4,10.37,34.47,34.47,0,0,0,10.9,12.46.17.17,0,0,1,0,.23.16.16,0,0,1-.19.07h0l.21-.21c1,2.94,1.75,5.22,2.28,6.82.25.76.44,1.35.58,1.79A3.83,3.83,0,0,1,236.86,143.44Z" style="fill:#263238"></path><path d="M246.16,107.29a3.79,3.79,0,1,1-3.79-3.79A3.79,3.79,0,0,1,246.16,107.29Z" style="fill:#263238"></path><path d="M258.91,107.29a3.79,3.79,0,1,1-3.78-3.79A3.79,3.79,0,0,1,258.91,107.29Z" style="fill:#263238"></path><path d="M271.33,107.29a3.79,3.79,0,1,1-3.78-3.79A3.79,3.79,0,0,1,271.33,107.29Z" style="fill:#263238"></path></g></svg>
